<svg width="36" height="36" viewBox="0 0 36 36" fill="none" xmlns="http://www.w3.org/2000/svg">
<path d="M18.0001 7.39307L14.8181 10.5751C14.2348 11.1584 14.2348 12.113 14.8181 12.6964C15.4015 13.2797 16.3561 13.2797 16.9394 12.6964L20.1214 9.51439C21.8715 7.7643 24.7353 7.7643 26.4854 9.51439C28.2355 11.2645 28.2355 14.1283 26.4854 15.8784L23.3034 19.0603C22.72 19.6437 22.72 20.5983 23.3034 21.1817C23.8868 21.765 24.8414 21.765 25.4247 21.1817L28.6067 17.9997C31.5341 15.0723 31.5341 10.3205 28.6067 7.39307C25.6793 4.46565 20.9275 4.46565 18.0001 7.39307ZM13.7575 22.2423C14.3408 22.8257 15.2954 22.8257 15.8788 22.2423L22.2427 15.8784C22.8261 15.295 22.8261 14.3404 22.2427 13.757C21.6594 13.1737 20.7048 13.1737 20.1214 13.757L13.7575 20.121C13.1741 20.7044 13.1741 21.659 13.7575 22.2423ZM19.0608 23.303L15.8788 26.485C14.1287 28.235 11.2649 28.235 9.51483 26.485C7.76474 24.7349 7.76474 21.8711 9.51483 20.121L12.6968 16.939C13.2802 16.3557 13.2802 15.4011 12.6968 14.8177C12.1134 14.2343 11.1589 14.2343 10.5755 14.8177L7.39351 17.9997C4.46609 20.9271 4.46609 25.6789 7.39351 28.6063C10.3209 31.5337 15.0727 31.5337 18.0001 28.6063L21.1821 25.4243C21.7655 24.8409 21.7655 23.8863 21.1821 23.303C20.5987 22.7196 19.6441 22.7196 19.0608 23.303Z" fill="black"/>
</svg>
