<svg width="67" height="75" viewBox="0 0 67 75" fill="none" xmlns="http://www.w3.org/2000/svg">
<path d="M23.5296 27.1236C23.2896 27.3635 22.9742 27.4828 22.6611 27.4828C22.3481 27.4828 22.0326 27.3635 21.7926 27.1235C20.322 25.6559 19.5112 23.7016 19.5112 21.6257C19.5112 19.5497 20.322 17.5954 21.7926 16.1278L23.5296 27.1236ZM23.5296 27.1236C24.0099 26.6441 24.0099 25.8666 23.5296 25.3872C22.5223 24.3816 21.9688 23.0474 21.9688 21.6257C21.9688 20.2039 22.5223 18.8697 23.5296 17.8642C24.0098 17.3848 24.0099 16.6074 23.5299 16.128C23.5298 16.1279 23.5297 16.1278 23.5296 16.1277L23.5296 27.1236Z" fill="black" stroke="white"/>
<path d="M11.3463 40.6025C6.31867 35.5849 3.54931 28.9118 3.54931 21.8136C3.54931 14.7162 6.31867 8.04405 11.3463 3.02463C12.0393 2.33288 12.0393 1.21154 11.3463 0.519792C10.6533 -0.171962 9.52902 -0.171962 8.8369 0.519792C3.13848 6.20793 0 13.7703 0 21.8136C0 29.8586 3.13848 37.4201 8.83602 43.1073C9.18296 43.4537 9.63638 43.6264 10.0907 43.6264C10.545 43.6264 10.9993 43.4537 11.3463 43.1073C12.0393 42.4156 12.0393 41.2934 11.3463 40.6025Z" fill="black"/>
<path d="M15.729 34.8583C16.1833 34.8583 16.6376 34.6856 16.9837 34.3393C17.6767 33.6475 17.6767 32.5262 16.9837 31.8345C14.3022 29.1578 12.8257 25.5989 12.8257 21.8133C12.8257 18.0277 14.3022 14.4689 16.9837 11.7922C17.6767 11.1005 17.6767 9.97912 16.9837 9.28737C16.2916 8.59562 15.1665 8.59562 14.4743 9.28737C11.122 12.6328 9.27637 17.0818 9.27637 21.8133C9.27637 26.5449 11.122 30.9939 14.4743 34.3393C14.8204 34.6856 15.2747 34.8583 15.729 34.8583Z" fill="black"/>
<path d="M49.0154 34.3394C49.3623 34.6857 49.8157 34.8584 50.27 34.8584C50.7244 34.8584 51.1778 34.6857 51.5247 34.3402C54.8779 30.994 56.7236 26.5458 56.7236 21.8134C56.7236 17.081 54.8779 12.6328 51.5256 9.28655C50.8326 8.59568 49.7092 8.5948 49.0162 9.28655C48.3232 9.9783 48.3232 11.0996 49.0162 11.7923C51.6978 14.4689 53.1743 18.0278 53.1743 21.8134C53.1743 25.599 51.6978 29.1578 49.0154 31.8336C48.3224 32.5263 48.3224 33.6476 49.0154 34.3394Z" fill="black"/>
<path d="M44.7237 27.1239L44.7241 27.1235C46.195 25.6556 47.0059 23.7016 47.0059 21.6253C47.0059 19.549 46.195 17.595 44.7245 16.1271L44.7243 16.1269C44.2448 15.6489 43.4676 15.6479 42.9875 16.1271C42.5071 16.6067 42.5074 17.384 42.9873 17.8636L42.9875 17.8639C43.9948 18.8693 44.5483 20.2035 44.5483 21.6253C44.5483 23.047 43.9948 24.3811 42.9873 25.3862L42.9869 25.3866C42.5071 25.8661 42.5068 26.6435 42.9872 27.1231L43.3374 26.7722L42.9872 27.1231C43.2272 27.3626 43.542 27.4824 43.8556 27.4824C44.1692 27.4824 44.4838 27.3627 44.7237 27.1239Z" fill="black" stroke="white"/>
<path d="M58.1634 0.518815C57.4704 -0.172938 56.347 -0.172938 55.654 0.518815C54.961 1.21057 54.961 2.3319 55.654 3.02365C60.6816 8.04307 63.451 14.7161 63.451 21.8135C63.451 28.9117 60.6816 35.5839 55.654 40.6024C54.961 41.2933 54.961 42.4155 55.654 43.1073C56.001 43.4536 56.4544 43.6263 56.9087 43.6263C57.363 43.6263 57.8165 43.4536 58.1634 43.1073C63.8618 37.42 67.0003 29.8577 67.0003 21.8135C67.0003 13.7693 63.8618 6.20696 58.1634 0.518815Z" fill="black"/>
<path d="M35.3126 37.3803V26.8186C37.3792 26.0879 38.8619 24.126 38.8619 21.8134C38.8619 18.8781 36.4786 16.499 33.538 16.499C30.5974 16.499 28.214 18.8781 28.214 21.8134C28.214 24.126 29.6967 26.0888 31.7633 26.8186V37.3803L14.204 72.4357C13.8535 73.1363 14.0043 73.983 14.5758 74.5198C14.9138 74.836 15.3504 74.9998 15.7914 74.9998C16.0967 74.9998 16.4046 74.921 16.6823 74.7598L33.538 64.9911L50.3937 74.7607C50.6714 74.921 50.9784 74.9998 51.2837 74.9998C51.7247 74.9998 52.1621 74.836 52.4993 74.5198C53.0716 73.9839 53.2225 73.1363 52.872 72.4357L35.3126 37.3803ZM40.9658 56.5891L35.3126 59.8654V45.304L40.9658 56.5891ZM31.7633 59.8654L26.1102 56.5891L31.7633 45.304V59.8654ZM20.0328 68.7218L24.5201 59.7644L30.0037 62.9433L20.0328 68.7218ZM37.0722 62.9424L42.5559 59.7635L47.0431 68.7218L37.0722 62.9424Z" fill="black"/>
</svg>
