<svg width="70" height="80" viewBox="0 0 70 80" fill="none" xmlns="http://www.w3.org/2000/svg">
<path d="M28.5644 0C25.3494 0 22.7851 2.40439 22.3159 5.45455H21.1929C17.7801 5.45455 14.9084 7.78749 14.0806 10.9091H5.55738C2.51032 10.9091 0 13.3858 0 16.392V74.5171C0 77.5233 2.51032 80 5.55738 80H51.5714C54.6184 80 57.1288 77.5233 57.1288 74.5171V63.6364C60.9164 60.9963 63.9157 58.4717 66.0551 54.9148C68.8309 50.2999 70 44.2349 70 34.5455C69.9973 34.17 69.8768 33.8045 69.6551 33.4993C69.4334 33.1941 69.1213 32.9641 68.7618 32.8409C62.8549 30.8217 57.7399 28.0117 53.6446 24.9148C53.2983 24.6546 52.8699 24.5238 52.4352 24.5455C52.0596 24.5614 51.6979 24.6902 51.3986 24.9148C47.3065 28.0093 42.1612 30.8211 36.2526 32.8409C35.8931 32.9641 35.581 33.1941 35.3593 33.4993C35.1376 33.8045 35.0171 34.17 35.0144 34.5455C35.0144 44.2349 36.1835 50.2999 38.9593 54.9148C41.7351 59.5297 45.9167 62.4018 51.4562 66.0511C51.7622 66.2555 52.1233 66.3643 52.4928 66.3636H52.5216C52.8462 66.36 53.1641 66.2718 53.443 66.108V74.5171C53.443 75.5676 52.6362 76.3636 51.5714 76.3636H5.55738C4.49256 76.3636 3.68573 75.5676 3.68573 74.5171V16.392C3.68573 15.3415 4.49256 14.5455 5.55738 14.5455H13.8215V18.1818C13.8215 18.664 14.0157 19.1265 14.3613 19.4674C14.7069 19.8084 15.1756 20 15.6643 20H41.4644C41.9532 20 42.4219 19.8084 42.7675 19.4674C43.1131 19.1265 43.3072 18.664 43.3073 18.1818V14.5455H51.5714C52.6362 14.5455 53.443 15.3415 53.443 16.392V19.0625C53.4396 19.3034 53.4847 19.5426 53.5758 19.7662C53.6668 19.9898 53.802 20.1933 53.9735 20.3649C54.145 20.5364 54.3493 20.6727 54.5746 20.7657C54.7999 20.8587 55.0417 20.9066 55.2859 20.9066C55.5301 20.9066 55.7719 20.8587 55.9972 20.7657C56.2225 20.6727 56.4268 20.5364 56.5983 20.3649C56.7698 20.1933 56.905 19.9898 56.996 19.7662C57.0871 19.5426 57.1322 19.3034 57.1288 19.0625V16.392C57.1288 13.3858 54.6184 10.9091 51.5714 10.9091H43.0481C42.2203 7.78749 39.3486 5.45455 35.9358 5.45455H34.8128C34.3436 2.40439 31.7794 0 28.5644 0ZM28.5644 3.63636C30.1277 3.63636 31.3287 4.82128 31.3287 6.36364V7.27273C31.3287 7.75492 31.5229 8.21736 31.8685 8.55832C32.2141 8.89929 32.6828 9.09086 33.1715 9.09091H35.9358C38.0096 9.09091 39.6216 10.6813 39.6216 12.7273V16.3636H17.5072V12.7273C17.5072 10.6813 19.1192 9.09091 21.1929 9.09091H23.9572C24.446 9.09086 24.9147 8.89929 25.2603 8.55832C25.6059 8.21736 25.8 7.75492 25.8001 7.27273V6.36364C25.8001 4.82128 27.0011 3.63636 28.5644 3.63636ZM52.5216 28.5227C56.4212 31.32 61.0408 33.7837 66.2855 35.7102C66.1857 44.326 65.065 49.42 62.8877 53.0398C60.7765 56.5498 57.3511 59.0838 52.5216 62.3011C47.6803 59.0768 44.241 56.555 42.1267 53.0398C39.9494 49.42 38.8287 44.326 38.7289 35.7102C43.9768 33.7839 48.6158 31.3224 52.5216 28.5227ZM52.32 37.2443C51.862 37.294 51.4394 37.5111 51.1356 37.8529C50.8318 38.1947 50.6688 38.6364 50.6787 39.0909V43.6364H46.0716C46.0044 43.6327 45.9372 43.6327 45.87 43.6364C45.628 43.6494 45.3909 43.7093 45.1724 43.8128C44.9538 43.9162 44.7581 44.0611 44.5963 44.2392C44.4345 44.4172 44.3099 44.625 44.2295 44.8506C44.1491 45.0762 44.1145 45.3152 44.1277 45.554C44.141 45.7928 44.2018 46.0266 44.3066 46.2423C44.4115 46.4579 44.5583 46.651 44.7388 46.8106C44.9193 46.9702 45.1299 47.0931 45.3586 47.1724C45.5873 47.2517 45.8296 47.2858 46.0716 47.2727H50.6787V51.8182C50.6459 52.0742 50.6687 52.3342 50.7455 52.5809C50.8224 52.8275 50.9516 53.0552 51.1246 53.2488C51.2975 53.4424 51.5103 53.5975 51.7487 53.7037C51.9871 53.8099 52.2456 53.8648 52.5072 53.8648C52.7688 53.8648 53.0273 53.8099 53.2657 53.7037C53.5041 53.5975 53.7169 53.4424 53.8898 53.2488C54.0628 53.0552 54.192 52.8275 54.2689 52.5809C54.3457 52.3342 54.3685 52.0742 54.3357 51.8182V47.2727H58.9716C59.2158 47.2761 59.4583 47.2316 59.6849 47.1418C59.9115 47.0519 60.1178 46.9186 60.2917 46.7494C60.4656 46.5802 60.6037 46.3786 60.6979 46.1563C60.7922 45.9341 60.8407 45.6955 60.8407 45.4545C60.8407 45.2136 60.7922 44.975 60.6979 44.7528C60.6037 44.5305 60.4656 44.3289 60.2917 44.1597C60.1178 43.9905 59.9115 43.8572 59.6849 43.7673C59.4583 43.6775 59.2158 43.633 58.9716 43.6364H54.3357V39.0909C54.3395 38.8498 54.2946 38.6103 54.2037 38.3864C54.1128 38.1626 53.9776 37.9588 53.8061 37.7869C53.6346 37.6151 53.4302 37.4786 53.2047 37.3854C52.9792 37.2923 52.7372 37.2443 52.4928 37.2443C52.4352 37.2417 52.3776 37.2417 52.32 37.2443Z" fill="black"/>
</svg>
