<svg width="80" height="76" viewBox="0 0 80 76" fill="none" xmlns="http://www.w3.org/2000/svg">
<circle cx="18.0008" cy="18.0004" r="5.33333" stroke="black" stroke-width="3" stroke-linejoin="round"/>
<path fill-rule="evenodd" clip-rule="evenodd" d="M18.0003 5.59441C16.5606 5.59441 15.3365 4.62436 14.9036 3.33641C14.6891 2.6984 14.083 2.13547 13.4366 2.3233C12.2817 2.65892 11.1795 3.11871 10.1457 3.68727C9.55603 4.01153 9.52508 4.83785 9.82412 5.44068C10.4277 6.65734 10.2476 8.20775 9.23015 9.22521C8.2123 10.2431 6.66115 10.4228 5.44432 9.8185C4.84162 9.5192 4.0153 9.54978 3.69076 10.1393C3.12058 11.175 2.65958 12.2793 2.32326 13.4366C2.13545 14.0829 2.69827 14.689 3.33621 14.9035C4.62405 15.3365 5.59396 16.5605 5.59396 18.0001C5.59396 19.4397 4.62407 20.6636 3.33624 21.0967C2.6983 21.3112 2.13549 21.9173 2.32331 22.5636C2.65892 23.7184 3.11866 24.8204 3.68715 25.8542C4.01137 26.4437 4.83753 26.4748 5.44033 26.1758C6.65719 25.5724 8.20772 25.7528 9.22502 26.7706C10.2423 27.7884 10.4219 29.339 9.8179 30.5556C9.51867 31.1582 9.5493 31.9844 10.1387 32.3089C11.1746 32.8792 12.2791 33.3403 13.4366 33.6767C14.083 33.8645 14.6891 33.3016 14.9036 32.6636C15.3366 31.3757 16.5606 30.4056 18.0003 30.4056C19.4399 30.4056 20.6639 31.3756 21.0969 32.6635C21.3114 33.3015 21.9175 33.8644 22.5638 33.6766C23.7185 33.341 24.8204 32.8813 25.854 32.3129C26.4436 31.9887 26.4746 31.1626 26.1758 30.5598C25.5726 29.3432 25.7528 27.7932 26.7701 26.7759C27.7878 25.7582 29.3387 25.5783 30.5555 26.1824C31.1581 26.4816 31.9842 26.451 32.3088 25.8616C32.8791 24.8257 33.3402 23.7213 33.6766 22.5638C33.8645 21.9174 33.3015 21.3113 32.6634 21.0968C31.3754 20.6639 30.4053 19.4398 30.4053 18.0001C30.4053 16.5603 31.3754 15.3363 32.6635 14.9034C33.3015 14.6889 33.8645 14.0828 33.6767 13.4364C33.3411 12.2816 32.8813 11.1797 32.3129 10.1459C31.9887 9.55633 31.1624 9.52533 30.5596 9.8243C29.3427 10.4278 27.7921 10.2475 26.7748 9.22963C25.7574 8.21179 25.5779 6.66107 26.182 5.4445C26.4812 4.84182 26.4506 4.01558 25.8612 3.69105C24.8255 3.12084 23.7212 2.6598 22.5639 2.32344C21.9175 2.1356 21.3114 2.6985 21.0969 3.3365C20.6639 4.62441 19.4399 5.59441 18.0003 5.59441Z" stroke="black" stroke-width="3" stroke-linejoin="round"/>
<path d="M24 57C24 56.4477 24.4477 56 25 56H34C34.5523 56 35 56.4477 35 57V71C35 71.5523 34.5523 72 34 72H25C24.4477 72 24 71.5523 24 71V57Z" stroke="black" stroke-width="3" stroke-linejoin="round"/>
<path d="M5 64C5 63.4477 5.44772 63 6 63H15C15.5523 63 16 63.4477 16 64V71C16 71.5523 15.5523 72 15 72H6C5.44771 72 5 71.5523 5 71V64Z" stroke="black" stroke-width="3" stroke-linejoin="round"/>
<path d="M43 48C43 47.4477 43.4477 47 44 47H53C53.5523 47 54 47.4477 54 48V71C54 71.5523 53.5523 72 53 72H44C43.4477 72 43 71.5523 43 71V48Z" stroke="black" stroke-width="3" stroke-linejoin="round"/>
<path d="M62 31C62 30.4477 62.4477 30 63 30H72C72.5523 30 73 30.4477 73 31V71C73 71.5523 72.5523 72 72 72H63C62.4477 72 62 71.5523 62 71V31Z" stroke="black" stroke-width="3" stroke-linejoin="round"/>
<path d="M68 38.1213L62.535 41.1416" stroke="black" stroke-width="3" stroke-linecap="round" stroke-linejoin="round"/>
<path d="M68 46.1213L62.535 49.1416" stroke="black" stroke-width="3" stroke-linecap="round" stroke-linejoin="round"/>
<path d="M68 54.1213L62.535 57.1416" stroke="black" stroke-width="3" stroke-linecap="round" stroke-linejoin="round"/>
<path d="M68 62.1213L62.535 65.1416" stroke="black" stroke-width="3" stroke-linecap="round" stroke-linejoin="round"/>
<path d="M4.12256 52.8821C4.12256 52.8821 23.5 49.9999 39.5 37.9999C55.5 25.9999 62.8826 12.8777 62.8826 12.8777" stroke="black" stroke-width="3" stroke-linecap="round" stroke-linejoin="round"/>
<path d="M57 10.5L69 4.5L67 17.5" stroke="black" stroke-width="3" stroke-linecap="round" stroke-linejoin="round"/>
</svg>
