<svg width="80" height="76" viewBox="0 0 80 76" fill="none" xmlns="http://www.w3.org/2000/svg">
<path d="M12.7273 0C8.7322 0 5.45455 3.26202 5.45455 7.2381C5.45455 11.2141 8.73219 14.4762 12.7273 14.4762C13.7917 14.4762 14.7961 14.2409 15.7102 13.8259C21.5611 21.1797 25.9171 26.6431 31.8466 34.0982C31.0291 35.2453 30.4406 36.5695 30.1705 38C25.091 37.9997 21.227 37.9995 16.1364 38C15.294 34.3985 12.046 31.6667 8.18182 31.6667C3.68465 31.6667 0 35.3338 0 39.8095C0 44.2853 3.68466 47.9524 8.18182 47.9524C12.0554 47.9524 15.3038 45.2337 16.1364 41.619C21.2268 41.6185 25.0909 41.6188 30.1705 41.619C30.9206 45.6538 34.1279 48.8454 38.1818 49.5923C38.1818 53.4651 38.1818 57.0336 38.1818 60.8735C35.0595 61.6857 32.7273 64.507 32.7273 67.8571C32.7273 71.8332 36.0049 75.0952 40 75.0952C43.9951 75.0952 47.2727 71.8332 47.2727 67.8571C47.2727 64.507 44.9405 61.6857 41.8182 60.8735C41.8181 56.9493 41.8183 53.2426 41.8182 49.5923C43.4496 49.2917 44.9394 48.6028 46.1932 47.6131C46.4295 47.857 46.6579 48.1029 46.9602 48.3765C47.666 49.0178 48.8957 48.9596 49.5371 48.2545C50.1785 47.5494 50.1147 46.3258 49.4034 45.6905C49.1345 45.4472 48.8693 45.1739 48.5795 44.8705C49.4662 43.386 50 41.6532 50 39.8095C50 38.1741 49.5732 36.6503 48.8636 35.2857C53.0554 30.1156 62.0736 21.5011 66.9886 15.6354C67.9087 16.0569 68.9267 16.2857 70 16.2857C73.9951 16.2857 77.2727 13.0237 77.2727 9.04762C77.2727 5.07144 73.995 1.80952 70 1.80952C66.005 1.80952 62.7273 5.07144 62.7273 9.04762C62.7273 10.652 63.2771 12.1408 64.1761 13.3452C59.7619 18.5917 51.2844 26.7561 46.5909 32.3735C44.8274 30.8277 42.5212 29.8571 40 29.8571C37.937 29.8571 36.0285 30.5061 34.4318 31.5818C28.6289 24.2858 24.3018 18.8275 18.5227 11.564C19.436 10.3541 20 8.85635 20 7.2381C20 3.26202 16.7223 0 12.7273 0ZM12.7273 3.61905C14.7571 3.61905 16.3636 5.21788 16.3636 7.2381C16.3636 9.25827 14.7571 10.8571 12.7273 10.8571C10.6974 10.8571 9.09091 9.25827 9.09091 7.2381C9.09091 5.21788 10.6974 3.61905 12.7273 3.61905ZM70 5.42857C72.0299 5.42857 73.6364 7.02721 73.6364 9.04762C73.6364 11.0678 72.0298 12.6667 70 12.6667C67.9702 12.6667 66.3636 11.0678 66.3636 9.04762C66.3636 7.02721 67.9701 5.42857 70 5.42857ZM40 33.4762C43.5361 33.4762 46.3636 36.2903 46.3636 39.8095C46.3636 43.3288 43.5361 46.1429 40 46.1429C36.4639 46.1429 33.6364 43.3288 33.6364 39.8095C33.6364 36.2903 36.4639 33.4762 40 33.4762ZM8.18182 35.2857C10.7137 35.2857 12.7273 37.2897 12.7273 39.8095C12.7273 42.3294 10.7137 44.3333 8.18182 44.3333C5.6499 44.3333 3.63636 42.3294 3.63636 39.8095C3.63636 37.2897 5.64992 35.2857 8.18182 35.2857ZM53.5227 49.7336C52.8055 49.77 52.1341 50.2709 51.898 50.9459C51.6618 51.6209 51.8754 52.4285 52.4148 52.9003C56.6645 56.7451 60.7436 60.6383 64.5739 64.125C63.9854 65.2471 63.6364 66.511 63.6364 67.8571C63.6364 72.3329 67.321 76 71.8182 76C76.3153 76 80 72.3329 80 67.8571C80 63.3815 76.3154 59.7143 71.8182 59.7143C69.9912 59.7143 68.298 60.3354 66.9318 61.3542C63.1788 57.9345 59.1255 54.0752 54.858 50.2143C54.5016 49.8851 54.0082 49.7075 53.5227 49.7336ZM71.8182 63.3333C74.3501 63.3333 76.3636 65.3374 76.3636 67.8571C76.3636 70.377 74.3501 72.381 71.8182 72.381C69.2863 72.381 67.2727 70.377 67.2727 67.8571C67.2727 65.3374 69.2863 63.3333 71.8182 63.3333ZM40 64.2381C42.0299 64.2381 43.6364 65.8367 43.6364 67.8571C43.6364 69.8773 42.0298 71.4762 40 71.4762C37.9702 71.4762 36.3636 69.8773 36.3636 67.8571C36.3636 65.8367 37.9701 64.2381 40 64.2381Z" fill="black"/>
</svg>
