<svg width="80" height="80" viewBox="0 0 80 80" fill="none" xmlns="http://www.w3.org/2000/svg">
<path d="M37.5459 61.9567L38.6562 62.08V60.9628V47.0312V46.0312H37.6562H32.9688H31.9688V47.0312V59.8872V60.5935L32.6345 60.8297C34.199 61.3846 35.8438 61.7677 37.5459 61.9567ZM33.7955 41.8476L32.9406 43.3438H34.6638H45.3363H47.0594L46.2045 41.8476L40.8682 32.509L40 30.9896L39.1318 32.509L33.7955 41.8476ZM47.3654 60.8298L48.0312 60.5938V59.8873V47.0312V46.0312H47.0312H42.3438H41.3438V47.0312V60.963V62.0802L42.4541 61.9569C44.1563 61.7678 45.801 61.3846 47.3654 60.8298ZM50.7188 57.5303V59.405L52.2757 58.3608C58.1889 54.3951 62.0938 47.6466 62.0938 40C62.0938 27.8166 52.1834 17.9062 40 17.9062C27.8166 17.9062 17.9062 27.8166 17.9062 40C17.9062 47.6465 21.8111 54.3951 27.7243 58.3608L29.2812 59.405V57.5303V44.3306L40 25.5728L50.7188 44.3306V57.5303ZM15.2188 40C15.2188 26.3365 26.3365 15.2188 40 15.2188C53.6635 15.2188 64.7812 26.3365 64.7812 40C64.7812 53.6635 53.6635 64.7812 40 64.7812C26.3365 64.7812 15.2188 53.6635 15.2188 40Z" stroke="white" stroke-width="2"/>
<path d="M72.8023 30.4562L72.9556 30.9841L73.4835 31.1376L79 32.7412V47.2588L73.4835 48.8622L72.9556 49.0157L72.8023 49.5437C72.106 51.9422 71.1478 54.2543 69.9425 56.4444L69.6773 56.9262L69.9422 57.4082L72.7099 62.4443L62.4445 72.7097L57.4083 69.9422L56.9264 69.6774L56.4446 69.9425C54.2541 71.1479 51.9421 72.1061 49.5437 72.8025L49.0157 72.9557L48.8623 73.4837L47.2587 79H32.7412L31.1378 73.4838L30.9843 72.9559L30.4564 72.8026C28.0578 72.1061 25.7458 71.148 23.5554 69.9426L23.0736 69.6775L22.5917 69.9424L17.5555 72.7099L7.29012 62.4445L10.0578 57.4083L10.3226 56.9264L10.0575 56.4446C8.85215 54.2543 7.89386 51.9421 7.19753 49.5438L7.04424 49.0159L6.51633 48.8624L1 47.2588V32.7413L6.51633 31.1378L7.0442 30.9843L7.19751 30.4564C7.89401 28.058 8.85232 25.7459 10.0575 23.5555L10.3226 23.0737L10.0578 22.5918L7.29012 17.5557L17.5555 7.29012L22.5918 10.0578L23.0738 10.3226L23.5556 10.0575C25.7459 8.85215 28.0579 7.89386 30.4562 7.19753L30.9841 7.04424L31.1376 6.51633L32.7412 1H47.2588L48.8622 6.51631L49.0157 7.04421L49.5436 7.19752C51.9422 7.89402 54.2541 8.85217 56.4444 10.0575L56.9262 10.3226L57.4082 10.0578L62.4445 7.28997L72.7099 17.5555L69.9422 22.5917L69.6773 23.0736L69.9425 23.5554C71.1478 25.7455 72.106 28.0577 72.8023 30.4562ZM68.852 62.5015L69.3828 61.9707L69.0212 61.3128L66.5795 56.8695L66.9784 56.207C68.5889 53.5323 69.7869 50.6418 70.5388 47.6157C70.5388 47.6157 70.5388 47.6157 70.5388 47.6157L70.7253 46.8653L75.5916 45.4507L76.3125 45.2412V44.4905V35.5094V34.7587L75.5916 34.5491L70.7257 33.1347L70.5392 32.3844C69.7872 29.3584 68.5893 26.4677 66.9789 23.7933L66.58 23.1307L69.0217 18.6874L69.3832 18.0295L68.8524 17.4987L62.5018 11.148L61.971 10.6172L61.3131 10.9788L56.8698 13.4205L56.2072 13.0216L56.2072 13.0216C53.5323 11.4112 50.6418 10.2131 47.6159 9.46109C47.6159 9.46109 47.6159 9.46109 47.6159 9.46109L46.8656 9.27458L45.4509 4.40834L45.2413 3.6875H44.4906H35.5095H34.7588L34.5493 4.40838L33.1349 9.27427L32.3846 9.46077C29.3585 10.2128 26.4678 11.4109 23.7933 13.0213L23.1307 13.4202L18.6874 10.9785L18.0295 10.6169L17.4987 11.1477L11.148 17.4984L10.6172 18.0292L10.9788 18.6871L13.4205 23.1304L13.0216 23.7929L13.8783 24.3088L13.0216 23.793C11.4112 26.4677 10.2131 29.3583 9.46094 32.3842L9.46091 32.3843L9.27451 33.1346L4.40837 34.5491L3.6875 34.7587V35.5094V44.4905V45.2412L4.40837 45.4507L9.27404 46.8651L9.46044 47.6153L9.46048 47.6155C10.2127 50.6412 11.4106 53.5318 13.0211 56.2067L13.42 56.8693L10.9783 61.3126L10.6168 61.9705L11.1476 62.5013L17.4982 68.852L18.029 69.3828L18.6869 69.0212L23.1302 66.5795L23.7928 66.9784L24.3086 66.1217L23.7928 66.9784C26.4675 68.5888 29.3582 69.7869 32.3841 70.5389L33.1344 70.7254L34.5491 75.5917L34.7587 76.3125H35.5094H44.4905H45.2412L45.4507 75.5916L46.8651 70.7256L47.6154 70.5391C50.6415 69.787 53.532 68.589 56.2067 66.9786L55.6909 66.1219L56.2067 66.9786L56.8693 66.5797L61.3126 69.0214L61.9705 69.3829L62.5013 68.8521L68.852 62.5015Z" stroke="white" stroke-width="2"/>
</svg>
