<svg width="80" height="80" viewBox="0 0 80 80" fill="none" xmlns="http://www.w3.org/2000/svg">
<path d="M68.0006 6.66667C68.0006 2.93359 65.0671 0 61.334 0H12.0007C8.26758 0 5.33398 2.93359 5.33398 6.66667V17.3333H16.0007V73.3333C16.0007 77.0664 18.9342 80 22.6673 80H68.0006C71.7337 80 74.6673 77.0664 74.6673 73.3333V66.6667H68.0006V6.66667ZM16.0007 14.6667H8.00065V6.66667C8.00065 4.39974 9.73372 2.66667 12.0007 2.66667C14.2676 2.66667 16.0007 4.39974 16.0007 6.66667V14.6667ZM18.6673 73.3333V6.66667C18.6673 5.19987 18.1341 3.86654 17.334 2.66667H61.334C63.6009 2.66667 65.334 4.39974 65.334 6.66667V66.6667H26.6673V73.3333C26.6673 75.6003 24.9342 77.3333 22.6673 77.3333C20.4004 77.3333 18.6673 75.6003 18.6673 73.3333ZM72.0006 69.3333V73.3333C72.0006 75.6003 70.2676 77.3333 68.0006 77.3333H28.0007C28.9342 76.1335 29.334 74.8001 29.334 73.3333V69.3333H72.0006Z" fill="white"/>
<path d="M52 42.6664H62.6667V45.3331H52V42.6664Z" fill="white"/>
<path d="M21.334 42.6664H49.334V45.3331H21.334V42.6664Z" fill="white"/>
<path d="M36 48H62.6667V50.6667H36V48Z" fill="white"/>
<path d="M21.334 48H33.334V50.6667H21.334V48Z" fill="white"/>
<path d="M45.334 58.6664H62.6673V61.3331H45.334V58.6664Z" fill="white"/>
<path d="M21.334 58.6664H42.6673V61.3331H21.334V58.6664Z" fill="white"/>
<path d="M39.7331 27.2001L41.3333 28.2672L42.9336 27.2001C47.7331 24.0002 50.6667 18.5334 50.6667 12.8004V8.39996L41.3333 5.33356L32 8.39996V12.8004C32 18.5334 34.9336 24.0002 39.7331 27.2001ZM34.6667 10.2672L41.3333 8.00022L48 10.2672V12.8004C48 17.7333 45.6003 22.2672 41.4668 25.0666H41.3333L41.1999 24.9338C37.0664 22.2672 34.6667 17.6005 34.6667 12.6669V10.2672Z" fill="white"/>
<path d="M45.334 13.4666L42.6673 13.1996C42.4004 15.4666 41.2005 17.6 39.334 18.9334L40.8008 21.1996C43.334 19.3331 45.0671 16.533 45.334 13.4666Z" fill="white"/>
<path d="M29.334 53.3336H62.6673V56.0002H29.334V53.3336Z" fill="white"/>
<path d="M21.334 53.3336H26.6673V56.0002H21.334V53.3336Z" fill="white"/>
<path d="M36 37.3336H62.6667V40.0002H36V37.3336Z" fill="white"/>
<path d="M21.334 37.3336H33.334V40.0002H21.334V37.3336Z" fill="white"/>
<path d="M32 30.6664H50.6667V33.3331H32V30.6664Z" fill="white"/>
</svg>
