<svg width="280" height="165" viewBox="0 0 280 165" fill="none" xmlns="http://www.w3.org/2000/svg">
<path fill-rule="evenodd" clip-rule="evenodd" d="M180.648 13.3114C182.051 13.4074 183.365 13.4983 184.921 13.6069C185.008 12.9365 185.087 12.3394 185.167 11.7402L185.167 11.735C185.203 11.4669 185.238 11.1982 185.275 10.9224C184.878 10.674 184.488 10.4266 184.101 10.1813L184.092 10.1759L184.088 10.1732L184.087 10.1724C183.097 9.54527 182.128 8.93156 181.137 8.34901C180.487 7.96512 180.084 7.48277 180.027 6.82111C179.889 5.2614 179.158 3.88957 178.427 2.52006C178.332 2.3418 178.237 2.16357 178.143 1.98498C177.419 1.5726 176.704 1.16401 175.996 0.759234C175.55 0.504644 175.107 0.251576 174.666 0C173.967 0.223975 173.289 0.440818 172.61 0.65775L171.599 0.98106C171.273 1.08562 170.943 1.19101 170.609 1.29804C170.415 2.37528 170.225 3.42562 170.035 4.47135L170.025 4.52461L169.844 5.5256C170.701 6.18473 171.518 6.81356 172.369 7.47015C172.276 7.62561 172.198 7.78161 172.123 7.93155C171.962 8.25155 171.815 8.54434 171.572 8.74548C171.225 9.03484 170.803 9.25523 170.334 9.50045C170.12 9.61256 169.895 9.73024 169.663 9.86172C170.092 11.0974 169.223 11.6924 168.361 12.2827C168.05 12.4959 167.74 12.7084 167.492 12.9503C167.472 13.043 167.457 13.1285 167.442 13.2088C167.414 13.3668 167.389 13.5051 167.345 13.6372C166.994 14.6928 167.023 15.6979 167.704 16.6677C167.897 16.943 168.024 17.299 168.026 17.6198C168.037 18.4585 168.013 19.2997 167.99 20.1053L167.99 20.1064L167.982 20.3915C167.976 20.6107 167.971 20.8269 167.966 21.0392C167.241 21.5922 166.635 22.0569 166.068 22.4913C166.27 23.0404 166.453 23.5361 166.628 24.0089L166.632 24.0201L166.708 24.2245L166.847 24.6025C166.534 25.3349 166.235 26.0369 165.927 26.7617C166.147 27.0325 166.365 27.2991 166.582 27.5634C167.134 28.2383 167.675 28.8982 168.188 29.575C168.498 29.9842 168.777 30.4412 168.924 30.9135C169.208 31.8216 169.434 32.7448 169.659 33.6668C169.694 33.8089 169.728 33.951 169.763 34.093C169.988 35.0071 170.202 35.9238 170.414 36.8327C170.495 37.1818 170.576 37.5298 170.658 37.8761L170.671 37.8817C171.652 38.2987 172.545 38.6783 173.439 39.0605C173.443 39.0363 173.448 39.0123 173.453 38.9885L173.459 38.9559L173.466 38.9152C173.47 38.8939 173.474 38.8725 173.479 38.8509C175.032 38.9115 176.587 38.9721 178.16 39.0352C178.744 38.0756 179.627 37.4796 180.72 37.1184C180.981 37.3041 181.237 37.4868 181.489 37.6669L181.675 37.8L181.89 37.9533C182.202 38.176 182.509 38.395 182.813 38.6109C183.529 38.2119 184.122 37.8811 184.763 37.5225C184.827 37.6087 184.894 37.6843 184.956 37.7535C185.075 37.8872 185.174 37.998 185.186 38.116C185.289 39.111 186.008 39.664 186.894 40.159C187.699 40.6085 188.473 41.1111 189.203 41.649C189.588 41.9319 189.928 42.3081 190.164 42.6996C190.5 43.2543 190.792 43.8299 191.079 44.3954L191.138 44.5115C191.181 44.5969 191.225 44.682 191.268 44.7667C191.318 44.8636 191.367 44.9601 191.417 45.0558C192.01 45.1846 192.513 45.2932 192.987 45.3967C193.066 45.3645 193.139 45.3362 193.208 45.3093C193.334 45.2604 193.446 45.2166 193.554 45.1644C195.023 44.4371 196.55 43.8991 198.273 43.7981C199.021 43.7542 199.763 43.6212 200.486 43.4915C200.803 43.4348 201.117 43.3786 201.425 43.3309C201.498 43.1213 201.573 42.9253 201.645 42.7379C201.792 42.3564 201.926 42.0096 201.997 41.6541C202.149 40.9015 202.676 40.5 203.403 40.1818C203.974 39.9313 204.524 39.6467 205.027 39.3862L205.028 39.3855L205.029 39.385L205.167 39.3135C205.234 39.2791 205.3 39.2453 205.364 39.2122C205.452 39.1669 205.539 39.123 205.623 39.0807C204.709 38.0934 203.804 37.1169 202.911 36.154L202.903 36.1456C202.431 35.6359 201.962 35.13 201.497 34.6284C201.53 34.4709 201.559 34.3294 201.586 34.1984L201.62 34.0348C201.635 33.962 201.649 33.8921 201.664 33.824C201.678 33.7568 201.692 33.6912 201.707 33.6264C201.712 33.6038 201.717 33.5814 201.722 33.5589L201.732 33.5122C201.753 33.4201 201.775 33.328 201.796 33.2359C202.101 31.9308 202.406 30.6236 201.474 29.3781C200.617 28.2341 200.562 27.0319 201.106 25.7793C201.121 25.7437 201.096 25.6944 201.07 25.6414C201.057 25.6155 201.043 25.5887 201.034 25.5622C200.099 25.6304 199.162 25.6985 198.167 25.7693C197.713 24.9994 197.288 24.2797 196.878 23.5868L196.856 23.5494L196.851 23.5409L196.573 23.0721C196.235 23.0943 195.903 23.1113 195.575 23.1281L195.574 23.1282L195.572 23.1283C194.818 23.167 194.089 23.2044 193.37 23.2994L193.3 23.3087L193.192 23.3231L193.042 23.3434C192.119 23.4689 191.201 23.5935 190.247 23.4534C189.974 22.9383 189.724 22.461 189.419 21.8801C187.889 22.7337 186.348 22.9736 184.662 22.5367C184.653 22.4272 184.644 22.3189 184.635 22.2115C184.625 22.0861 184.615 21.9621 184.605 21.8392L184.593 21.6985L184.57 21.4193L184.549 21.1482L184.519 20.7765L183.767 20.1779C183.467 19.9383 183.163 19.6961 182.839 19.4381C183.02 18.4683 183.204 17.4884 183.38 16.5566C183.286 16.4572 183.192 16.3604 183.1 16.2655C183.037 16.2011 182.974 16.1375 182.912 16.0745L182.911 16.0735C182.57 15.7253 182.246 15.3953 181.962 15.0413C181.832 14.8793 181.669 14.7365 181.502 14.5902C181.129 14.2644 180.737 13.9214 180.648 13.3114ZM169.884 38.6533L169.639 38.644C169.455 38.6369 169.275 38.6299 169.095 38.6229L169.09 38.6227C168.706 38.6076 168.322 38.5926 167.906 38.5776C167.451 38.9486 166.994 39.3212 166.535 39.6953L165.167 40.8113C164.454 41.3933 163.736 41.9788 163.014 42.5677H159.612C159.131 41.8154 158.26 41.6282 157.379 41.4388C157.274 41.4161 157.168 41.3934 157.063 41.3697C157.003 41.3561 156.943 41.3422 156.883 41.3277C156.421 41.4708 156.126 41.8209 155.83 42.1724C155.373 42.7139 154.914 43.2588 153.838 43.0551C153.619 42.8051 153.337 42.4844 153.024 42.1283C153.243 41.9059 153.455 41.6918 153.673 41.4712L153.677 41.4666L154.004 41.1357L154.216 40.9205C154.331 40.8044 154.449 40.6839 154.574 40.5575C154.294 40.4487 154.027 40.3429 153.767 40.2404C153.214 40.0216 152.697 39.8173 152.173 39.6281C151.617 39.4277 151.055 39.2423 150.487 39.0551L150.305 38.9951C150.22 38.967 150.135 38.939 150.05 38.9108C149.955 38.879 149.859 38.8471 149.763 38.8149C149.004 39.2544 148.288 39.6685 147.776 39.964L146.806 40.0675L145.463 40.211L145.392 40.2186L145.377 40.2202C144.652 40.2979 143.936 40.3744 143.189 40.4539C141.7 38.6735 140.147 36.8199 138.528 34.8879C138.055 35.0253 137.583 35.1621 137.109 35.2995L136.681 35.4237C135.891 35.6527 135.092 35.8847 134.263 36.1254C133.975 35.3827 133.693 34.6561 133.414 33.9369L133.396 33.8923L133.344 33.7562L132.954 32.7517C132.698 32.0925 132.443 31.4356 132.187 30.774L132.182 30.7722L131.599 30.5396L131.225 30.3906C131.051 30.3216 130.87 30.2496 130.677 30.173C130.646 29.8742 130.604 29.5722 130.562 29.2682C130.468 28.5935 130.374 27.9081 130.389 27.2258C130.433 25.1929 130.067 23.2155 129.613 21.2381C129.406 20.334 129.199 19.4299 128.995 18.5258C128.991 18.5114 128.988 18.4968 128.984 18.4821L128.978 18.461L128.975 18.4481C128.947 18.347 128.919 18.2421 128.949 18.152C129.063 17.7957 129.158 17.4297 129.253 17.0635C129.481 16.1915 129.708 15.3179 130.188 14.571C130.94 13.3971 131.863 12.3064 132.786 11.2161C133.179 10.7513 133.573 10.2867 133.952 9.81567C134.087 9.64777 134.225 9.48225 134.333 9.35224L134.341 9.34341C135.379 9.27719 136.368 9.21381 137.375 9.14921C138.02 9.10788 138.672 9.06605 139.35 9.02269L139.893 8.56696C140.33 8.20059 140.783 7.82106 141.162 7.50237C144.391 6.63112 147.281 7.24734 150.033 8.31809C151.324 7.80319 152.508 7.33154 153.718 6.84922L153.809 6.81296V2.53996C154.817 2.62023 155.815 2.81833 156.821 3.01805C158.79 3.40891 160.791 3.80599 162.962 3.33799L163.376 2.89481C164.043 2.18054 164.775 1.39651 165.556 0.562562C166.255 0.686545 166.967 0.813094 167.702 0.94388C168.42 1.0715 169.16 1.20318 169.933 1.34039C169.81 2.07485 169.69 2.79685 169.571 3.51007L169.57 3.51472C169.456 4.19769 169.344 4.8726 169.231 5.54267C169.484 5.89302 169.842 6.15796 170.197 6.42001C170.734 6.8172 171.263 7.20768 171.4 7.87868C171.328 8.3989 170.894 8.63376 170.41 8.85601C170.119 8.98936 169.842 9.14584 169.561 9.30518L169.557 9.30724C169.435 9.37662 169.311 9.44644 169.185 9.51513C169.158 9.71992 169.132 9.91814 169.106 10.1162L169.073 10.3707C169.041 10.6093 169.01 10.8516 168.975 11.1087C168.603 11.4062 168.222 11.7122 167.834 12.0237L167.822 12.0335C167.513 12.2821 167.199 12.5341 166.882 12.7881C166.847 12.9367 166.806 13.0863 166.764 13.2368C166.672 13.5697 166.579 13.9069 166.551 14.2478C166.548 14.2879 166.545 14.3286 166.541 14.3697C166.538 14.4017 166.536 14.434 166.533 14.4664L166.532 14.4703L166.532 14.4717C166.489 14.9516 166.443 15.4736 166.666 15.8463C167.4 17.0661 167.451 18.3313 167.365 19.642C167.348 19.8938 167.352 20.1457 167.357 20.4134V20.4145C167.36 20.5462 167.362 20.6826 167.362 20.8239C167.175 20.9691 166.99 21.1134 166.804 21.258L166.775 21.2805L166.352 21.6093L166.116 21.7929L165.831 22.0144C165.686 22.1263 165.54 22.2395 165.392 22.3543L165.564 22.8192L165.721 23.2461L165.746 23.3138C165.897 23.7241 166.053 24.1492 166.223 24.6095C165.953 25.2257 165.648 25.9278 165.283 26.7637C165.42 26.9368 165.556 27.1187 165.696 27.3046L165.697 27.3056C166.029 27.7485 166.378 28.2137 166.787 28.635C168.072 29.9609 168.642 31.5493 169.042 33.1959C169.369 34.5445 169.628 35.9107 169.87 37.2744C169.925 37.5816 169.911 37.8959 169.897 38.2149C169.891 38.3601 169.884 38.5064 169.884 38.6533ZM97.6842 57.675H90.7682C90.3142 58.6728 89.8877 59.6083 89.407 60.6626L89.3889 60.7024L89.3483 60.7914L89.3421 60.8049L89.2297 61.0515C89.1102 60.317 88.9983 59.6243 88.8893 58.9497C88.7858 58.3091 88.6849 57.6848 88.5827 57.0563C88.2915 56.9136 88.0061 56.7736 87.7245 56.6354L87.4597 56.5055L86.9138 56.2374L86.4374 56.0032C86.3339 55.3921 86.2361 54.8163 86.1096 54.0764C86.5001 53.6005 86.9403 53.0609 87.4176 52.4758L87.8177 51.9853L87.7489 51.9138C87.5355 51.6924 87.2607 51.4072 86.9579 51.0913C87.034 50.8597 87.1105 50.6253 87.1895 50.3838L87.19 50.3821C87.2959 50.0581 87.4059 49.7213 87.5244 49.3614C87.2959 49.017 87.0568 48.6589 86.8046 48.2809L86.5869 47.9547H84.7436C84.1253 47.3816 83.5043 46.8055 82.8773 46.2238L82.7543 46.1097L82.7478 46.1036C82.1048 45.5071 81.4552 44.9045 80.7953 44.2929L80.8087 44.2564L80.8091 44.2554C81.1373 43.3609 81.4382 42.5407 81.7615 41.6665C81.6624 41.5363 81.5626 41.4051 81.4606 41.2709L81.3928 41.1818L81.3718 41.1541L81.36 41.1386C81.1214 40.8248 80.8679 40.4914 80.5796 40.1134L80.7489 39.8797C81.0453 39.4706 81.3676 39.0258 81.7242 38.535C81.7226 38.1801 81.7318 37.8223 81.7411 37.4628C81.7837 35.8144 81.8271 34.1315 80.8356 32.5371C81.1951 32.3877 81.5265 32.2496 81.8595 32.1108L81.878 32.1031L81.9047 32.092C82.204 31.9674 82.5057 31.8417 82.8313 31.7063C82.9611 30.9762 83.0948 30.2267 83.241 29.4077L83.3288 28.9157L83.5779 28.779L83.6039 28.7647C83.9637 28.5673 84.3803 28.3387 84.8184 28.0974C84.8414 27.7259 84.863 27.3598 84.8863 26.9628L84.9133 26.5039C85.1549 26.2337 85.4453 25.9079 85.7875 25.5241C85.7558 25.3727 85.7229 25.2173 85.6884 25.0544L85.6846 25.0361L85.6525 24.8843C85.6334 24.7943 85.6139 24.7017 85.5937 24.6061C85.562 24.4555 85.5289 24.2975 85.4942 24.13C86.0521 24.2336 86.5381 24.3245 87.1247 24.4356C87.6401 23.5478 87.7241 22.5931 87.8137 21.5748C87.8286 21.4055 87.8437 21.2344 87.8609 21.0617C88.2439 20.9319 88.6266 20.7946 89.0108 20.6569C89.8898 20.3417 90.777 20.0235 91.6913 19.7863C93.2096 19.3924 94.475 18.7434 95.4239 17.4529C95.5974 17.8404 95.7597 18.203 95.9189 18.5581C96.0856 18.9301 96.2488 19.294 96.4174 19.6703L96.5023 19.8596C100.646 20.9455 104.428 19.8924 108.134 18.1221C108.686 18.7881 108.974 19.5388 109.26 20.2847C109.511 20.9387 109.76 21.589 110.185 22.1754H113.158C113.768 21.7284 114.424 21.246 115.145 20.7132L115.149 20.7143C115.568 20.8478 115.987 20.9814 116.609 21.1804C116.243 21.4111 115.895 21.6356 115.559 21.853L115.552 21.8573C114.827 22.3257 114.153 22.761 113.452 23.1552C112.474 23.7058 111.795 24.3321 111.715 25.4382C111.669 26.065 111.507 26.6858 111.341 27.3221C111.267 27.6087 111.191 27.8985 111.125 28.1934L111.947 29.0582L112.872 30.0319L113.558 30.7542C113.469 30.9291 113.378 31.1072 113.285 31.2881L113.283 31.2919L113.281 31.2964C113.092 31.6663 112.897 32.0471 112.701 32.4336C112.983 32.9597 113.378 33.4297 113.776 33.9031C114.467 34.7249 115.167 35.557 115.295 36.7091C114.94 36.7426 114.595 36.7744 114.231 36.808C113.964 36.8326 113.687 36.8581 113.388 36.8859C113.388 37.0441 113.386 37.1994 113.384 37.3527C113.378 37.7036 113.373 38.0435 113.397 38.3809C113.41 38.5645 113.445 38.7476 113.48 38.9304C113.524 39.1626 113.568 39.3943 113.567 39.626C113.564 40.2447 113.771 40.7674 114.182 41.265C114.497 41.646 114.785 42.0445 115.087 42.4621C115.171 42.5789 115.256 42.6972 115.344 42.817C115.389 42.8793 115.435 42.9419 115.482 43.0049L115.46 43.0229L114.769 43.5897C114.545 43.7739 114.304 43.9715 114.033 44.1944C114.069 44.2161 114.105 44.2375 114.141 44.2586C114.202 44.2949 114.261 44.3304 114.318 44.3649L114.422 44.4276C114.674 44.5801 114.897 44.7149 115.128 44.8359C115.376 44.9667 115.63 45.0849 115.897 45.209C116.026 45.2694 116.159 45.3312 116.296 45.3965C116.443 45.7862 116.593 46.1757 116.743 46.5655C117.066 47.4035 117.39 48.2432 117.685 49.0912C118.458 51.3211 118.343 52.5005 117.216 54.6799C116.302 55.2441 115.895 55.4952 115.625 55.8487C115.41 56.1309 115.282 56.4788 115.05 57.1043C114.386 57.2685 113.722 57.4326 112.917 57.6296C113.037 57.7947 113.143 57.9451 113.241 58.0846L113.242 58.086C113.431 58.3535 113.591 58.5817 113.771 58.7989C113.949 59.0122 114.15 59.2105 114.345 59.4026C114.377 59.435 114.41 59.4673 114.442 59.4993C114.491 59.5473 114.538 59.5949 114.585 59.6423C112.669 61.0843 110.444 61.2258 108.074 60.9354C107.754 60.4586 107.879 59.9818 108.011 59.4813C108.112 59.0963 108.217 58.6973 108.126 58.2736C105.989 57.6548 103.832 57.0765 101.601 57.5361C101.371 57.4055 101.147 57.2786 100.928 57.1541L100.154 56.714L100.073 56.6677L99.7264 56.4708C99.4556 56.3169 99.1832 56.1621 98.9035 56.0032C98.4779 56.5891 98.0983 57.1093 97.6842 57.675ZM42.8238 44.3888C42.8041 44.1809 42.7833 43.9601 42.701 43.7351C41.6629 43.773 41.2373 43.1416 40.8807 42.4143C40.7523 42.1516 40.5969 41.8993 40.4415 41.6472C40.3013 41.4196 40.1611 41.1921 40.041 40.9572C39.8052 40.495 39.3998 40.298 38.8764 40.1187C37.8452 39.7647 36.8297 39.3743 35.8138 38.9837L35.8124 38.9832L35.8112 38.9827L35.8097 38.9821L35.8087 38.9818L35.8074 38.9812C35.3837 38.8183 34.9592 38.6551 34.5341 38.4949C34.3106 38.4103 34.0846 38.3314 33.8378 38.2452C33.7162 38.2027 33.5895 38.1585 33.4557 38.111C32.5671 39.6338 31.7217 41.0834 30.8475 42.5835C30.5255 42.6509 30.2048 42.7151 29.8857 42.779C29.1759 42.9211 28.4734 43.0618 27.7791 43.2325C27.6815 43.2568 27.5836 43.2795 27.486 43.3021C26.9133 43.4348 26.3475 43.5659 25.8783 44.0104C22.1054 47.5838 18.321 51.1497 14.4704 54.66C12.745 56.2334 11.5861 58.0794 10.5825 60.0316C10.4876 60.221 10.3984 60.4356 10.4071 60.6351C10.4328 61.216 10.4271 61.7983 10.4213 62.3806C10.4085 63.687 10.3956 64.9936 10.7378 66.2845C10.8263 66.6177 10.9197 66.9501 11.013 67.2827C11.2169 68.0086 11.4208 68.7346 11.5746 69.469C11.7586 70.3352 12.2015 71.0474 12.906 71.6434C13.9097 72.4919 14.7724 73.4238 15.1491 74.6082C15.8019 74.6537 16.3684 74.6941 16.7163 74.7193C16.9722 74.918 17.2066 75.1105 17.4303 75.2941C17.9028 75.682 18.3268 76.03 18.8012 76.3129C19.574 76.7754 20.3842 77.19 21.2176 77.6165C21.5625 77.7929 21.9117 77.9716 22.2635 78.1564C22.3936 78.1175 22.5271 78.0776 22.6643 78.0365L22.883 77.971C23.2733 77.8541 23.6929 77.7284 24.1471 77.5932C24.1471 77.1848 24.1466 76.7795 24.1462 76.3764C24.145 75.3766 24.1438 74.3906 24.15 73.4061C24.1506 73.3349 24.1486 73.2617 24.1466 73.1878C24.1391 72.9155 24.1314 72.6341 24.2535 72.4136C24.6236 71.7438 25.0363 71.0907 25.4611 70.4185L25.4622 70.4168C25.6312 70.1493 25.8022 69.8787 25.9732 69.6028C29.7576 69.3453 33.5046 69.0902 37.3091 68.8301V68.0371L37.2939 68.0308C36.7879 67.8237 36.3228 67.6332 35.7563 67.3982C35.733 67.104 35.7111 66.8075 35.6887 66.5048L35.6886 66.5033C35.6778 66.357 35.6668 66.2093 35.6556 66.0597C36.0349 65.8948 36.3764 65.7454 36.6961 65.6056C36.8757 65.527 37.0485 65.4514 37.2171 65.3779C37.3822 64.8258 37.3757 64.2637 37.3691 63.7028C37.3603 62.9449 37.3515 62.1891 37.7664 61.4635C38.5684 61.5577 39.3597 61.6495 40.1458 61.7407C40.7718 61.8134 41.3945 61.8857 42.0166 61.9584L42.1412 61.641L42.1939 61.5066L42.2056 61.4768C42.3633 61.0747 42.5163 60.6846 42.6752 60.2841C42.872 60.2841 43.0578 60.2868 43.2357 60.2893H43.237H43.2383H43.2396H43.2408C43.6403 60.295 44.0013 60.3001 44.3603 60.274C44.7313 60.2462 45.1626 60.2134 45.4416 60.0341C46.0934 59.6129 46.716 59.1557 47.3364 58.7002L47.3401 58.6975C47.5889 58.5148 47.8373 58.3324 48.0872 58.1527L48.0429 57.8286L47.9204 56.9316C47.8813 56.6452 47.8434 56.3665 47.8054 56.0869C48.4152 55.7398 49.0896 55.7408 49.7648 55.7418C50.4556 55.7428 51.1471 55.7438 51.771 55.3722C51.8063 55.2544 51.8373 55.1322 51.8689 55.008C51.9374 54.738 52.0083 54.4591 52.1304 54.1979C52.5848 53.2256 52.3145 52.4099 51.5754 51.6346C51.285 51.329 51.0146 51.0082 50.7443 50.6874C50.474 50.3668 50.2037 50.0461 49.9133 49.7405C49.1685 48.9602 48.8263 48.0687 48.8982 47.0712C48.9643 46.1848 48.7055 45.4221 48.07 44.7327C47.8295 44.4721 47.6256 44.1873 47.4133 43.8909C47.311 43.7479 47.2064 43.6018 47.0951 43.4548C46.2567 43.9018 45.4433 44.3347 44.6458 44.7591L44.6421 44.7611L44.61 44.7781L44.4838 44.8453C44.1244 45.0365 43.7682 45.226 43.4142 45.4145C42.8978 45.1717 42.8633 44.8063 42.8238 44.3888ZM9.94125 90.2708C9.88374 91.1396 9.83198 91.9629 9.77446 92.8821C11.4235 92.5782 12.9296 91.9782 14.4285 91.3811C15.2585 91.0505 16.0863 90.7207 16.9349 90.4426C17.1418 90.6035 17.3461 90.7622 17.5483 90.9194L17.5544 90.9241C18.2386 91.4556 18.8992 91.9689 19.5547 92.4881C20.0349 92.867 20.5583 93.0791 21.2283 93.1018C22.1633 93.1331 23.0975 93.1859 24.0317 93.2387H24.0328H24.034H24.0351H24.0363C24.9137 93.2882 25.7911 93.3377 26.6691 93.3695C27.4829 93.3973 28.1415 93.6246 28.7166 94.1347C29.0092 94.3951 29.3392 94.6225 29.6821 94.8587L29.6843 94.8602C29.8429 94.9695 30.0043 95.0807 30.166 95.1979L30.3228 95.1603C33.2475 94.4587 36.1113 93.7717 38.9196 93.0993V91.1623C38.7008 91.101 38.4919 91.0424 38.2847 90.9842C37.9199 90.8819 37.5605 90.781 37.1625 90.6699C37.1542 90.4547 37.1401 90.2436 37.1263 90.0357C37.0972 89.5996 37.0691 89.1771 37.0964 88.7581C37.1568 87.8111 36.7973 87.0409 35.9921 86.3186C35.5862 86.3639 35.1738 86.4098 34.7563 86.4561L34.7373 86.4583L34.7341 86.4586L34.6167 86.4717L33.9716 86.5435L33.3378 86.6141C33.1491 86.4922 32.9641 86.3727 32.7823 86.2553L32.407 86.0128L32.0869 85.8059C32.1904 84.9574 32.2853 84.1821 32.3745 83.4599C31.5819 83.1217 30.7419 82.9475 29.914 82.7759C28.9306 82.5721 27.9641 82.3717 27.1149 81.9042C27.1457 81.6394 27.1736 81.3967 27.2004 81.1633L27.2012 81.1571L27.2019 81.1506L27.2029 81.1417C27.2354 80.8601 27.2663 80.5914 27.2989 80.3132C26.921 80.2324 26.5926 80.161 26.2664 80.0901L26.2337 80.083C26.0099 80.0344 25.7863 79.9858 25.5476 79.9344C25.3284 79.6375 25.0974 79.3243 24.8508 78.99C24.6737 78.7498 24.4885 78.4987 24.2938 78.2348C24.139 78.2658 23.9865 78.2951 23.8356 78.3241L23.834 78.3245L23.8323 78.3248C23.5668 78.376 23.3065 78.4261 23.0486 78.4823C22.416 78.6212 21.8121 78.5959 21.2657 78.2474C20.7469 77.9168 20.1888 77.6345 19.6336 77.3537C18.5053 76.783 17.3894 76.2186 16.6416 75.2674C14.9449 75.3432 14.6488 75.1664 14.1225 73.8608L14.1116 73.8335C14.1043 73.8152 14.0971 73.7968 14.09 73.7783C14.0814 73.756 14.0728 73.7335 14.0642 73.711L14.0628 73.7074C13.9763 73.4809 13.8872 73.2476 13.7257 73.0729C12.4143 71.6536 10.9535 70.4237 8.74784 70.1636C8.47707 70.1318 8.21736 70.0437 7.95583 69.955C7.51196 69.8045 7.0625 69.652 6.54506 69.7696C6.33944 70.2264 6.13697 70.6816 5.93527 71.135C5.41766 72.2987 4.90503 73.4512 4.35667 74.5906C4.10361 75.1184 3.72402 75.621 3.30416 76.0604C2.56145 76.8355 1.79078 77.5899 0.982653 78.381L0.978971 78.3846L0.969637 78.3937L0.966118 78.3971L0.955086 78.408L0.954249 78.4088C0.641945 78.7145 0.324042 79.0258 0 79.346C0.109276 80.5127 0.227179 81.7577 0.33358 82.8613C0.503217 83.0096 0.672242 83.157 0.840481 83.3036C3.03634 85.218 5.09889 87.0162 6.63996 89.1647C7.44884 89.4361 8.22781 89.697 9.01785 89.9616L9.05504 89.974L9.94125 90.2708ZM38.1449 95.5912L38.1412 95.5846C37.8327 95.0425 37.5353 94.5199 37.2171 93.958C37.5169 93.9001 37.8059 93.8447 38.0942 93.7893C38.5222 93.7072 38.9485 93.6253 39.4055 93.5363V90.7659L38.9278 90.609L38.8617 90.5873L38.4172 90.4413C38.2155 90.375 38.0024 90.3049 37.7693 90.228C37.7687 90.1265 37.7687 90.0245 37.7687 89.922C37.7689 88.4891 37.7691 86.9713 36.1589 85.7505C36.0254 85.7674 35.8784 85.785 35.7218 85.8036C35.3185 85.8518 34.8515 85.9075 34.3875 85.9803C33.7433 86.0813 33.1423 86.104 32.7138 85.5105C32.7706 85.1484 32.8279 84.7805 32.8855 84.4105L32.8862 84.4059L32.8885 84.3908C32.9613 83.9236 33.0345 83.4533 33.1078 82.9877L31.1191 82.5095C29.9898 82.238 28.8779 81.9706 27.7418 81.6972C27.7843 81.3512 27.8251 81.0271 27.8656 80.7056L27.8659 80.7039C27.8992 80.4393 27.9323 80.1763 27.9661 79.9041C27.5163 79.81 27.1057 79.7244 26.7343 79.647C26.4385 79.5853 26.1675 79.5288 25.9214 79.4773C24.9581 78.5101 24.6331 77.5 24.774 76.3509C24.8316 75.8938 24.8488 75.419 24.774 74.9645C24.4721 73.1462 25.1853 71.5905 26.347 70.0778C26.9334 70.0411 27.5241 70.0002 28.1181 69.9592C29.4438 69.8675 30.7856 69.7748 32.1301 69.7242C33.5958 69.6689 35.0434 69.5301 36.5114 69.3893L36.514 69.389L36.5159 69.3889L36.5178 69.3887L36.5201 69.3885L36.5226 69.3882L36.5254 69.388L36.5283 69.3877L36.5314 69.3874L36.5347 69.3872C37.0032 69.3422 37.4737 69.2971 37.9476 69.2545C37.9661 68.9627 37.981 68.7195 37.9944 68.4995C38.0102 68.2416 38.0241 68.0154 38.0396 67.7797C37.4961 67.5599 37.0274 67.3705 36.4608 67.1432C36.4177 66.9235 36.3659 66.6533 36.3113 66.3654C36.5204 66.2901 36.7163 66.2197 36.9228 66.1456C37.1592 66.0606 37.4095 65.9707 37.7089 65.8629C37.7845 65.259 37.8608 64.6425 37.9396 64.0062C38.0108 63.4318 38.084 62.8411 38.1604 62.2288C38.8255 62.0446 39.484 62.1613 40.1671 62.2823C40.7479 62.3852 41.3465 62.4913 41.9822 62.4182C42.0753 62.8159 42.1656 63.2027 42.2552 63.5863C42.3898 64.1625 42.5227 64.7316 42.6608 65.3199C42.9353 65.5169 43.2151 65.7168 43.5023 65.922C43.808 66.1404 44.1219 66.3647 44.4466 66.5977C44.6178 67.4066 44.789 68.218 44.9608 69.0322L44.9619 69.0376C45.162 69.986 45.3628 70.9379 45.5653 71.8935C45.6644 71.9592 45.7608 72.0264 45.8562 72.093C46.0653 72.2389 46.2701 72.3818 46.4912 72.4997C47.7738 73.184 48.8953 73.9694 49.597 75.2018C49.7824 75.5276 50.1495 75.7746 50.5545 76.0472C50.7524 76.1804 50.9593 76.3197 51.1585 76.4772C51.2279 76.4684 51.3079 76.4582 51.3954 76.4468L51.6101 76.4186C51.8044 76.3932 52.0194 76.365 52.2311 76.3383C52.2626 76.3582 52.2958 76.3751 52.3276 76.3913C52.3886 76.4224 52.4443 76.4508 52.4727 76.4923C52.7078 76.8394 52.9386 77.1889 53.1694 77.5384C53.6102 78.2061 54.0511 78.8739 54.523 79.5253C54.8452 79.9704 54.8896 80.4496 54.9339 80.9284C54.9545 81.1505 54.9751 81.3726 55.0234 81.5911C55.125 82.0512 55.2719 82.503 55.4449 83.0355C55.5264 83.2865 55.6138 83.5553 55.7049 83.8513C55.6936 83.8812 55.6785 83.9207 55.6605 83.9676L55.5921 84.1461L55.5896 84.1525C55.5148 84.3475 55.4202 84.5939 55.334 84.8211C55.2807 84.8514 55.2358 84.8827 55.1967 84.9098C55.1283 84.9575 55.0778 84.9926 55.032 84.9878C53.0421 84.7807 51.6962 85.7934 50.4137 86.8869C49.6839 87.5099 48.9648 88.1423 48.2457 88.7747C47.1372 89.7495 46.0286 90.7244 44.8809 91.665C43.9319 92.4428 43.4229 93.2105 44.2568 94.5414C44.3056 94.5866 44.4017 94.6748 44.5316 94.7942L44.5628 94.8228C44.7116 94.9596 44.9002 95.1329 45.1109 95.3268C45.0538 95.8465 44.9936 96.3862 44.9315 96.9431C44.8747 97.4523 44.8163 97.9758 44.7572 98.5114C43.791 98.7033 42.8679 98.8851 41.8384 99.0871C41.3495 97.7966 40.2107 97.0845 38.7786 96.7057L38.6305 96.4449L38.486 96.1907L38.1808 95.6542L38.1683 95.6323L38.1449 95.5912ZM45.2403 60.8523H43.1353C42.5918 61.8474 42.7126 62.7186 42.865 63.6631C43.0174 64.6178 43.3539 65.3526 44.2712 65.8653C44.8837 66.2087 45.1339 66.7037 45.2461 67.325C45.4334 68.3749 45.6525 69.4197 45.8789 70.4989C45.9721 70.9435 46.0666 71.394 46.1605 71.853C48.0864 72.4865 49.2464 73.8261 50.4069 75.1663C50.6343 75.4289 50.862 75.6919 51.0952 75.9492C51.4051 75.9127 51.6953 75.8783 51.9797 75.8445L52.3322 75.8027L52.7142 75.7573C53.2654 76.6163 53.8103 77.4641 54.3636 78.3252C54.7196 78.8792 55.0791 79.4386 55.4461 80.0101C56.7287 79.9293 57.9882 79.8485 59.3484 79.7601L59.4057 80.0105L59.4106 80.0321L59.4139 80.0463L59.4187 80.0672L59.4247 80.0936L59.4261 80.0997C59.5276 80.5435 59.618 80.9385 59.7194 81.3839C60.1141 81.2882 60.5077 81.193 60.9018 81.0976C61.4439 80.9665 61.9869 80.8351 62.5347 80.7021L62.7287 81.1134C62.8967 81.4695 63.0421 81.7777 63.1875 82.0885C63.4118 82.1876 63.631 82.2848 63.8475 82.381L64.2381 82.5547C64.4021 82.6277 64.5653 82.7003 64.7289 82.7729C65.3519 82.5498 65.939 82.3373 66.5052 82.1323L66.8425 82.0102L66.8172 81.8011L66.7893 81.5683C66.7665 81.3781 66.7446 81.1935 66.723 81.0118L66.7227 81.0091C66.6837 80.6816 66.6459 80.3636 66.6067 80.0404C66.5159 79.9826 66.4254 79.925 66.3351 79.8677L66.088 79.7109L65.8841 79.5816C65.5858 79.3923 65.2875 79.2031 64.9848 79.01C65.0918 78.5146 65.1956 78.0381 65.2939 77.5874C65.3594 77.2869 65.4225 76.9978 65.4823 76.722L65.2507 76.3426L65.0706 76.0471C64.8764 75.7287 64.6995 75.4385 64.539 75.1765C64.7406 74.2499 64.9289 73.3776 65.1103 72.5374C65.1825 72.2028 65.2537 71.8733 65.3241 71.5475C65.0107 71.1712 64.7605 70.8681 64.5275 70.5853C64.5648 70.2762 64.6015 69.9738 64.6375 69.6772L64.6383 69.6712C64.6882 69.2598 64.7368 68.8597 64.7835 68.469C65.2378 68.0422 65.6548 67.6507 66.0747 67.2568L65.8057 66.6856L65.3954 65.8137C65.0857 65.1554 64.7836 64.5131 64.4873 63.8854C65.1861 62.4762 65.8504 61.1352 66.5175 59.7866C66.2581 59.3495 66.0234 58.9506 65.7577 58.4994L65.5686 58.178V56.2864C65.2997 56.1315 64.9872 55.9501 64.8223 55.8545L64.8094 55.847C64.7821 55.7518 64.7548 55.6582 64.7278 55.5661C64.4619 54.6565 64.2375 53.8891 64.5822 53.0842C65.0164 52.9908 65.4075 52.91 65.721 52.8443C65.6829 52.6616 65.6468 52.4879 65.6117 52.3184C65.5805 52.1677 65.5501 52.0203 65.5197 51.873L65.4553 51.5611L65.4543 51.5563L65.3615 51.1068C64.9935 50.9151 64.6139 50.7168 64.225 50.5137L64.1863 50.4935L63.9387 50.3642L63.5516 50.1621C63.3582 50.0611 63.1629 49.9593 62.9661 49.8567C62.1925 50.4603 61.5253 50.9805 60.8841 51.4831C60.5416 51.3941 60.2254 51.313 59.9025 51.2302L59.8963 51.2286C59.6166 51.1569 59.3318 51.0839 59.0206 51.0033C58.4644 51.1961 57.9004 51.3918 57.3314 51.5892C55.9556 52.0665 54.5506 52.5539 53.1571 53.0362C52.812 54.054 52.4899 55.0086 52.1477 56.0238C50.8882 56.1652 49.6804 56.3016 48.4496 56.4405C48.5991 57.0693 48.7343 57.6325 48.8809 58.2411C47.9949 58.8762 47.1222 59.5023 46.2596 60.1212L46.076 60.2528L45.2403 60.8523ZM65.1171 63.8625C65.8188 62.4508 66.4859 61.1073 67.1847 59.6956C66.1638 58.6905 66.1552 57.4707 66.2271 56.2105C66.0544 56.0675 65.8837 55.9258 65.7069 55.7789C65.5246 55.6274 65.3358 55.4706 65.1315 55.3014V53.6119C65.348 53.5418 65.5766 53.4683 65.824 53.3888L65.85 53.3805L65.8532 53.3794C66.1233 53.2927 66.4158 53.1987 66.739 53.0942C66.5505 52.9275 66.5151 52.7169 66.4797 52.5056C66.4372 52.2528 66.3946 51.9991 66.0891 51.8189L66.1204 51.5408L66.1541 51.2425L66.1836 50.9814C66.1983 50.8511 66.2124 50.7257 66.2255 50.6086C66.2376 50.5006 66.2488 50.3997 66.2587 50.3087C67.5486 48.9701 68.7275 47.7476 69.9576 46.4722L69.965 46.4645L70.1179 46.3059C70.3828 46.2552 70.6691 46.2001 70.969 46.1422L70.9762 46.1408C71.3775 46.0635 71.8032 45.9814 72.2344 45.8993C72.3393 45.7401 72.4504 45.5863 72.5601 45.4344C72.7933 45.1116 73.0204 44.7973 73.169 44.4573C73.5802 43.5178 74.1554 42.7375 75.0957 42.4016C75.5291 42.3223 75.9471 42.2445 76.3549 42.1686C77.219 42.0077 78.0375 41.8554 78.86 41.7147C79.5674 41.5935 80.2691 41.6389 81.0829 41.8511C80.8208 42.5436 80.5808 43.1796 80.3217 43.8663L80.3054 43.9093L80.1224 44.3942C81.6149 45.7478 83.1045 47.0989 84.5798 48.4398C85.1721 48.4626 85.6926 48.4828 86.3023 48.508C86.3793 48.6411 86.4599 48.7793 86.5425 48.9211L86.5438 48.9232L86.5483 48.931C86.6489 49.1036 86.7527 49.2816 86.8573 49.4626L86.7476 49.8012L86.5564 50.3915C86.4678 50.6651 86.3775 50.9445 86.2822 51.2405C86.3447 51.3018 86.4089 51.3643 86.4749 51.4287L86.6912 51.6393C86.8018 51.747 86.9181 51.8602 87.0413 51.9805C86.7747 52.3523 86.503 52.7302 86.2275 53.1132L85.867 53.6146C85.7557 53.7695 85.6438 53.9252 85.5316 54.0816L85.5678 54.4058L85.6088 54.7751L85.6619 55.2552L85.6965 55.5687C85.7148 55.7337 85.733 55.8986 85.7514 56.0634C85.7691 56.2228 85.7869 56.3821 85.8048 56.5414C86.2591 56.6935 86.6829 56.8351 87.1297 56.9844L87.2002 57.008L88.0104 57.2788C88.0688 57.6431 88.1125 58.0118 88.1562 58.3808C88.2547 59.2113 88.3533 60.0435 88.6201 60.832C88.9108 61.6945 88.6678 62.4641 88.4237 63.2371C88.3032 63.6185 88.1825 64.0007 88.1255 64.3954C88.3415 64.5367 88.5474 64.6705 88.7582 64.8075L88.764 64.8112L88.9347 64.9221C89.0163 64.9751 89.0992 65.0291 89.1841 65.0844L89.3707 65.206V67.4941C88.807 68.6684 87.8149 69.5599 86.3224 70.0321C85.8688 70.1747 85.4343 70.3677 84.9776 70.5705C84.7712 70.6622 84.5603 70.7559 84.3411 70.8478C84.7616 71.9716 84.2192 72.823 83.6796 73.6701C83.6178 73.7672 83.556 73.8642 83.4956 73.9616C83.2673 74.3321 83.0363 74.7002 82.8011 75.0754C82.6867 75.2577 82.5713 75.4417 82.4546 75.6284L83.2143 76.7289C83.4621 77.0879 83.7199 77.4613 84.0046 77.8735C83.9126 78.8382 83.8062 79.9595 83.7055 81.0151C81.9974 81.9621 81.2209 82.0934 78.2302 81.9747L77.9032 81.7926L77.5419 81.5916L76.8751 81.221L76.8711 81.2187C76.5682 81.0504 76.2653 80.8821 75.9642 80.7146C73.9138 81.3131 72.6399 82.543 71.9497 84.2703C70.0345 83.9723 68.7433 82.9976 67.5068 82.0632C67.4123 81.5407 67.3221 81.0463 67.2341 80.5645L67.1479 80.0919L67.0668 79.6463C66.5779 79.3584 66.1466 79.1059 65.6721 78.8281C65.73 78.5378 65.7875 78.248 65.8445 77.9604L65.8464 77.951C65.9331 77.5137 66.0188 77.0815 66.1035 76.6613C65.9878 76.4783 65.8746 76.2994 65.7641 76.1248L65.7563 76.1123C65.5373 75.7662 65.3288 75.4365 65.1315 75.1233C65.3019 74.4041 65.4695 73.7037 65.6347 73.0131L65.6364 73.0061L65.6382 72.9984L65.6427 72.9797C65.759 72.4934 65.8742 72.012 65.9884 71.5322C65.8487 71.366 65.7174 71.2097 65.5885 71.0561L65.5799 71.0458L65.5597 71.0217L65.3294 70.7475L65.1729 70.5613L65.074 70.4437C65.154 70.0131 65.234 69.5747 65.3245 69.0791L65.3254 69.0742L65.3673 68.8447L65.4392 68.4512C65.7929 68.1759 66.253 67.8173 66.7534 67.4259C66.207 66.2364 65.675 65.0772 65.1171 63.8625ZM108.597 61.3841C108.208 61.3922 107.816 61.4003 107.421 61.4003C107.091 60.8762 107.216 60.3369 107.349 59.7659C107.432 59.407 107.518 59.0356 107.496 58.6477C107.045 58.5631 106.597 58.4381 106.149 58.3131C105.137 58.0309 104.125 57.7485 103.073 57.9304C101.782 58.1527 100.839 57.8471 99.8985 57.2082C99.7839 57.1299 99.6676 57.0536 99.5504 56.978C99.4678 56.9247 99.3847 56.8717 99.3014 56.8186L99.289 56.8107C99.2277 56.7716 99.1662 56.7325 99.1048 56.693C98.9112 56.9547 98.7222 57.2106 98.5384 57.4596C98.3789 57.6757 98.2234 57.8866 98.0722 58.0916L97.9545 58.2512C96.2231 58.0698 94.553 58.0947 92.8663 58.1199H92.8648H92.8633H92.8618C92.2699 58.1287 91.6753 58.1375 91.0759 58.1375C90.2362 60.2185 89.4425 62.1858 88.6517 64.1455C88.7793 64.2198 88.8997 64.2897 89.0163 64.3574L89.3572 64.5552L89.662 64.7319C89.792 64.8074 89.9261 64.8853 90.0694 64.9688C90.0694 65.1579 90.0736 65.3515 90.0779 65.5478C90.0878 65.999 90.098 66.4649 90.0579 66.926C89.9831 67.7618 89.7445 68.4942 88.922 69.118C88.1858 69.6761 87.4669 70.1711 86.5611 70.4817C86.1752 70.6131 85.8068 70.7848 85.3886 70.9796C85.196 71.0694 84.9928 71.1641 84.7724 71.2621C85.3667 71.9265 85.0458 72.4256 84.721 72.9308C84.689 72.9805 84.6569 73.0303 84.6257 73.0804C84.2761 73.6421 83.9381 74.2095 83.6039 74.7705L83.6028 74.7722C83.437 75.0504 83.2722 75.3271 83.1074 75.6007C83.3716 75.9883 83.6212 76.354 83.8731 76.7232C84.1202 77.0852 84.3695 77.4506 84.6372 77.8433C84.2576 79.9444 84.1512 82.139 85.1146 84.3108C86.0607 84.2578 86.9637 84.2073 88.0766 84.1442C88.618 84.5759 89.1736 85.0148 89.7375 85.4603L89.7618 85.4795L89.7668 85.4834L89.7732 85.4885C91.0852 86.5248 92.4417 87.5965 93.7704 88.6949C94.7553 89.5099 95.9156 90.0433 97.0777 90.5775C97.6764 90.8528 98.2758 91.1283 98.8518 91.4426C99.1288 91.162 99.3896 90.8976 99.6349 90.649C99.9548 90.3247 100.248 90.0272 100.517 89.7556C101.681 90.0597 102.713 90.3306 103.708 90.5917L103.721 90.5951C104.226 90.7276 104.721 90.8575 105.219 90.988C105.487 91.4828 105.754 91.9691 106.028 92.4694L106.149 92.6909C106.261 92.8952 106.374 93.1024 106.49 93.3139C107.062 92.9351 107.579 92.5916 108.074 92.2633C107.89 91.7355 107.729 91.2759 107.539 90.7304C107.882 90.6818 108.184 90.6394 108.465 90.5999C108.724 90.5635 108.965 90.5295 109.204 90.4956C109.483 90.2127 109.751 89.9399 110.078 89.6041C110.836 90.0658 111.573 90.5164 112.297 90.9586L112.31 90.9669L113.126 91.4655C113.415 91.6417 113.701 91.8167 113.986 91.9906C114.495 91.8832 114.998 91.7766 115.502 91.6698C116.456 91.4679 117.414 91.2651 118.418 91.0537C118.623 91.2365 118.821 91.4154 119.024 91.5994L119.047 91.6198C119.165 91.7267 119.285 91.8354 119.41 91.9477C119.669 91.6259 119.572 91.297 119.47 90.9552C119.373 90.6262 119.272 90.2853 119.482 89.9273C119.552 89.8759 119.629 89.8186 119.712 89.7571L119.73 89.7435L119.761 89.7212C119.968 89.5673 120.207 89.3908 120.442 89.2177C120.25 88.7379 120.077 88.3085 119.916 87.9121C120.03 87.6531 120.138 87.3977 120.243 87.1461C120.48 86.581 120.709 86.0355 120.992 85.5129C121.275 84.992 121.613 84.4954 121.948 84.0029C122.095 83.7864 122.242 83.5704 122.384 83.3537C122.465 83.3675 122.546 83.3809 122.625 83.394L122.749 83.4148L122.889 83.4379C123.046 83.4639 123.198 83.489 123.347 83.5135L123.374 83.5179L123.441 83.5289L123.444 83.5294L123.476 83.5347L123.746 83.5792L123.864 83.5987L124.123 83.6416V82.5128C123.495 81.8237 122.832 81.1536 122.164 80.478L122.162 80.4766C120.501 78.7979 118.806 77.0851 117.535 74.9643C117.581 74.7883 117.629 74.5984 117.679 74.3992C117.802 73.9066 117.94 73.3564 118.11 72.8152C118.513 71.5323 118.645 70.262 118.044 68.9488C117.669 68.6738 117.288 68.3943 116.899 68.1091L116.859 68.0793L116.846 68.07L116.138 67.5508C115.888 67.3672 115.634 67.1811 115.376 66.9922C115.245 66.8959 115.112 66.7989 114.979 66.7012C114.98 66.3781 114.983 66.0544 114.987 65.73C115.008 63.9597 115.03 62.1712 114.57 60.3826C114.153 60.503 113.773 60.681 113.398 60.8566C112.704 61.1819 112.028 61.4986 111.168 61.4231C110.325 61.348 109.471 61.3659 108.602 61.3841H108.601H108.6H108.599H108.598H108.597ZM115.637 66.4814C117.225 67.8477 118.821 69.027 120.997 69.5119C121.087 69.3562 121.175 69.1972 121.264 69.037C121.481 68.6435 121.703 68.2429 121.967 67.8679C122.072 67.7167 122.149 67.5436 122.226 67.37C122.422 66.9316 122.619 66.49 123.272 66.3905C123.884 66.8085 124.455 67.1984 125.025 67.5873L125.092 67.633C125.538 67.4333 125.978 67.2403 126.414 67.0493C127.423 66.6077 128.406 66.177 129.36 65.701C130.041 65.3601 130.663 65.3298 131.407 65.4662C132.356 65.6399 133.316 65.7642 134.276 65.8884L134.278 65.8886L134.28 65.8889C134.672 65.9396 135.065 65.9904 135.456 66.0445C135.632 65.7061 135.767 65.446 135.896 65.1985C136.394 65.2364 136.842 65.2718 137.328 65.3096C137.344 65.2183 137.361 65.1387 137.377 65.0671C137.406 64.9348 137.43 64.8295 137.421 64.7262C137.343 63.8221 137.832 63.2337 138.683 62.7666C139.101 62.5375 139.477 62.2473 139.833 61.9723L139.841 61.9668C139.875 61.9406 139.908 61.9145 139.942 61.8886C139.996 61.8467 140.05 61.8054 140.104 61.7649C140.142 61.7367 140.179 61.7089 140.216 61.6817L140.246 61.6595L140.276 61.6377C140.168 60.8598 140.113 60.461 140.184 60.0859C140.258 59.6913 140.472 59.3228 140.912 58.5668C140.917 58.5565 140.922 58.5461 140.928 58.5356L140.933 58.5253L140.938 58.5147C140.943 58.5062 140.947 58.4977 140.952 58.4893C140.959 58.4769 140.966 58.4647 140.975 58.4531C141.458 57.8193 141.51 57.1551 141.32 56.4076C141.215 55.9973 141.212 55.5666 141.21 55.1271C141.208 54.9283 141.207 54.7275 141.196 54.5261C141.34 54.4822 141.476 54.4402 141.607 54.3999C141.731 54.3618 141.849 54.3251 141.964 54.2896C142.237 54.2052 142.488 54.1272 142.732 54.0514C142.849 53.6035 142.963 53.1704 143.083 52.7118C143.18 52.3456 143.281 51.963 143.39 51.5436C144.403 52.0801 145.298 52.665 146.192 53.2486C146.88 53.6979 147.567 54.1464 148.305 54.5716C149.478 53.3114 150.62 52.0841 151.73 50.8895C151.618 50.2162 151.515 49.5949 151.409 48.9614L151.391 48.8515L152.055 48.0776C152.622 47.4158 153.181 46.7644 153.743 46.1089C153.132 45.4272 153.267 44.6996 153.398 43.991L153.399 43.9899C153.424 43.851 153.45 43.7129 153.47 43.576C153.087 43.0658 152.722 42.5835 152.411 42.1693C152.484 41.9291 152.659 41.7528 152.831 41.58C153.102 41.3078 153.364 41.0443 153.202 40.553C152.792 40.4066 152.37 40.2563 151.939 40.1024L151.249 39.8563L150.585 39.6195L150.059 39.4317L149.812 39.3434C149.675 39.4309 149.542 39.5191 149.411 39.6059C149.112 39.805 148.822 39.9973 148.512 40.1591C148.478 40.1768 148.444 40.1947 148.41 40.2128C148.039 40.4086 147.643 40.6179 147.235 40.6642C146.251 40.7796 145.26 40.8498 144.2 40.9249C143.799 40.9534 143.387 40.9826 142.962 41.0152L141.966 39.8252C140.784 38.4139 139.555 36.9455 138.323 35.477C137.781 35.6132 137.255 35.7833 136.73 35.9534L136.729 35.9537C135.813 36.2502 134.898 36.5468 133.889 36.6639L133.573 35.8675L133.171 34.8578C132.67 33.5966 132.186 32.3781 131.712 31.1888C131.521 31.1125 131.341 31.0406 131.17 30.9721L131.164 30.9696L131.156 30.9667L131.134 30.9576C130.753 30.8053 130.413 30.6696 130.085 30.5398C130.047 30.2279 130.008 29.9233 129.969 29.6237L129.968 29.6196C129.878 28.9267 129.791 28.2598 129.745 27.5927C129.699 26.9089 129.692 26.2227 129.685 25.557C129.685 25.4695 129.684 25.3818 129.683 25.295C129.68 25.0938 129.678 24.8948 129.673 24.6986H127.097C126.674 22.6782 125.322 21.2261 123.514 20.0543C122.647 20.5338 121.799 21.0016 120.953 21.468L120.855 21.5221C120.428 21.7574 120.002 21.9925 119.574 22.2287C119.426 22.1781 119.283 22.1236 119.142 22.0698L119.14 22.0693C118.831 21.9514 118.53 21.8373 118.217 21.7767C117.9 21.7155 117.57 21.7087 117.238 21.702H117.237C117.09 21.699 116.942 21.696 116.796 21.6883C116.271 22.0147 115.751 22.3388 115.235 22.6599C114.346 23.2131 113.472 23.7573 112.615 24.2894C112.319 25.638 112.04 26.9083 111.767 28.1558L112.212 28.6261L112.755 29.1994L112.782 29.2278C113.276 29.7492 113.761 30.2608 114.24 30.7671C113.909 31.3707 113.624 31.8959 113.319 32.4591C113.599 32.8682 113.923 33.2581 114.247 33.6483C115.154 34.7396 116.062 35.8328 116.002 37.3508C115.634 37.3645 115.286 37.3782 114.939 37.3918C114.644 37.4034 114.349 37.415 114.041 37.4266C113.774 39.6111 114.671 41.394 116.324 43.1492C115.807 43.4775 115.355 43.7628 114.806 44.1088C115.539 44.4649 116.115 44.7452 116.713 45.0382C116.799 45.2611 116.881 45.4858 116.962 45.7103C117.142 46.2075 117.322 46.704 117.558 47.1772C118.246 48.5574 118.496 50.0208 118.745 51.4839C118.763 51.5922 118.782 51.7005 118.8 51.8088C118.849 52.0891 118.809 52.4022 118.714 52.675L118.69 52.7425C118.244 54.0059 117.795 55.2772 116.253 55.9025C116.199 55.9232 116.16 55.9723 116.125 56.015C116.109 56.0347 116.095 56.0531 116.08 56.0666C115.879 56.5995 115.686 57.1096 115.482 57.6526C115.245 57.694 115.018 57.7339 114.792 57.7735L114.787 57.7744L114.284 57.8625L113.971 57.9173L113.751 57.9556C113.813 58.027 113.875 58.096 113.936 58.163C113.971 58.2018 114.006 58.2399 114.041 58.2776L114.102 58.3435C114.347 58.6088 114.573 58.8535 114.751 59.1224C115.01 59.5111 115.298 59.9434 115.344 60.375C115.476 61.64 115.539 62.9088 115.602 64.1781C115.612 64.376 115.621 64.5738 115.631 64.7717C115.653 65.177 115.648 65.5836 115.642 65.9752C115.64 66.1472 115.637 66.3165 115.637 66.4814ZM158.865 70.5903L158.484 70.9684C157.678 71.7701 156.878 72.5645 156.023 73.4137C153.289 73.5829 150.488 73.7572 147.56 73.939C147.278 74.5055 146.997 75.0696 146.716 75.6352L145.843 77.3887H133.958C133.841 77.8084 133.724 78.2259 133.607 78.644L133.415 79.3323L133.295 79.7639L133.024 80.7381L132.897 81.192C131.914 81.3306 131.027 81.4557 130.008 81.5993L129.834 81.6238C129.724 81.8406 129.603 82.0768 129.468 82.3399L129.467 82.3426L129.292 82.6845L129.182 82.8997C129.124 83.0135 129.063 83.1319 129 83.2552C128.24 83.3444 127.449 83.4378 126.619 83.5359L125.488 83.6694L124.739 83.7578C124.71 83.3209 124.681 82.8916 124.65 82.4168C123.945 81.6447 123.237 80.869 122.53 80.0947C121.083 78.5085 119.641 76.9277 118.24 75.3936C118.233 74.5455 118.45 73.7522 118.664 72.969C118.984 71.8002 119.298 70.6538 118.852 69.3806C119.018 69.4341 119.166 69.4809 119.299 69.5234L119.302 69.5244C119.609 69.6219 119.846 69.6971 120.08 69.7796C120.315 69.8632 120.546 69.9525 120.812 70.0553L120.824 70.0601C120.949 70.1082 121.081 70.1593 121.225 70.214C121.863 69.1281 122.47 68.0952 123.12 66.9941C123.787 67.3982 124.399 67.7694 125.098 68.1937C125.481 68.021 125.869 67.8523 126.259 67.6831C127.185 67.2806 128.117 66.875 129.006 66.4057C129.898 65.936 130.76 65.8501 131.747 66.0244C132.709 66.1938 133.679 66.3297 134.665 66.468C135.061 66.5235 135.46 66.5794 135.862 66.638L136.01 66.3199L136.014 66.3111L136.145 66.0293C136.186 65.9408 136.227 65.8516 136.27 65.7592C136.667 65.8223 137.075 65.8855 137.397 65.9335C137.909 65.7314 137.993 65.4814 138.194 63.7338C138.784 63.3197 139.396 62.8895 140.032 62.4425L140.969 61.7842C140.332 60.5654 140.913 59.628 141.466 58.7346C141.674 58.3989 141.879 58.0693 142.013 57.7334C142.002 57.5661 141.991 57.402 141.98 57.2407L141.959 56.94C141.931 56.5275 141.904 56.1308 141.877 55.7388L141.826 54.9909C142.122 54.8938 142.386 54.8065 142.662 54.7151L142.667 54.7133C142.835 54.6577 143.008 54.6006 143.195 54.5388C143.254 54.3134 143.315 54.0853 143.376 53.8524C143.504 53.3651 143.638 52.8566 143.784 52.3064C144.36 52.6706 144.937 53.0353 145.52 53.4037L145.599 53.4532C146.49 54.0165 147.396 54.589 148.334 55.1828C149.297 54.3799 150.086 53.4811 150.873 52.5848C151.344 52.0489 151.814 51.5138 152.319 51.0007L152.261 50.5659C152.191 50.0422 152.119 49.507 152.04 48.9021C152.356 48.5407 152.687 48.1612 153.018 47.7807L153.029 47.7683L153.421 47.3192C153.612 47.0997 153.802 46.8821 153.987 46.6696C154.307 47.0092 154.625 47.3466 154.943 47.6837L155.44 48.2111L155.783 48.5762L155.808 48.6019L155.825 48.6204L156.43 49.2626L156.735 49.5869C157.092 49.9653 157.452 50.3474 157.818 50.7356C157.913 53.1473 159.44 55.0515 161.568 56.5389C162.879 57.4557 163.42 58.6098 163.923 59.9962C162.931 60.9374 161.925 61.8933 160.882 62.8846L159.704 64.004C160.111 64.3321 160.5 64.6469 160.892 64.964L160.898 64.9694L161.374 65.3541C161.717 65.6317 162.069 65.9158 162.442 66.2163L162.541 66.2018C164.744 65.8798 167.087 65.5374 169.217 66.9108C169.01 67.1181 168.801 67.3279 168.589 67.5406L167.991 68.1394L167.942 68.1887C167.589 68.5424 167.227 68.9047 166.856 69.2771L167.106 70.0991C167.231 70.5116 167.359 70.9338 167.492 71.3735L167.681 71.9969C167.553 72.0157 167.434 72.0361 167.321 72.0556C167.098 72.0939 166.897 72.1283 166.695 72.1384C166.493 72.149 166.289 72.1445 166.085 72.1399C165.757 72.1326 165.43 72.1253 165.116 72.1813C163.359 72.4894 161.847 71.9767 160.374 71.2242C160.061 71.0583 159.727 70.9284 159.36 70.7858L159.357 70.7848L159.355 70.7842L159.354 70.7837L159.352 70.7831C159.196 70.7224 159.034 70.6594 158.865 70.5903ZM158.627 42.3744L158.58 42.3109C158.296 42.2391 158.015 42.1681 157.735 42.0977C157.473 42.0318 157.212 41.9664 156.952 41.9017C156.649 42.1177 156.388 42.374 156.13 42.627C155.546 43.1994 154.98 43.7549 153.984 43.7882V45.4701C154.086 45.6116 154.186 45.7531 154.287 45.8944C155.474 47.5618 156.637 49.1957 158.448 50.276C158.452 50.3149 158.456 50.352 158.461 50.3876C158.464 50.4124 158.467 50.4364 158.47 50.4598C158.476 50.5037 158.482 50.5452 158.487 50.5848L158.487 50.5865C158.512 50.7596 158.531 50.8955 158.525 51.0311C158.433 53.0464 159.747 54.5136 161.315 55.6475C162.991 56.8572 164.049 58.2512 164.576 60.1074L163.859 60.7735L163.682 60.9382L162.161 62.3539C161.596 62.8788 161.028 63.4071 160.455 63.941C161.191 64.5546 161.812 65.0724 162.491 65.6355C162.663 65.6177 162.836 65.6021 163.008 65.5866L163.01 65.5864L163.011 65.5862L163.013 65.586L163.014 65.5859C163.354 65.5554 163.694 65.5248 164.032 65.4764C165.366 65.287 166.635 65.2517 167.943 65.787C169.771 66.5337 169.873 66.4934 171.615 65.8059L171.618 65.8044L171.689 65.7764L171.822 65.7239C171.873 65.7038 171.931 65.695 172.021 65.6814C172.054 65.6765 172.092 65.6707 172.134 65.6637C172.148 65.6613 172.163 65.6588 172.179 65.6561L172.201 65.6521L172.218 65.6489L172.236 65.6456C172.808 66.0271 173.41 66.3846 174.014 66.7437C175.603 67.687 177.209 68.6408 178.327 70.0676C180.001 70.2974 181.554 70.5121 183.026 70.7166L183.458 71.0484L184.244 71.652L184.654 71.9668L185.332 72.4871C185.633 72.7186 185.93 72.9462 186.222 73.1701L186.471 73.3607C186.799 73.4038 187.118 73.4459 187.43 73.4874L187.915 73.5518L188.302 73.6032L188.428 73.62L189.086 73.7075L189.418 73.7515L189.787 73.8001C189.45 71.6359 189.931 69.3075 191.124 67.1861C191.412 67.1055 191.712 67.036 192.014 66.9659L192.015 66.9655C192.707 66.8053 193.414 66.6416 194.025 66.3325C194.679 66.0015 195.241 65.5328 195.791 65.0751C196.025 64.8798 196.257 64.6864 196.493 64.5067L197.761 64.5714L198.867 64.6279L199.512 64.6607C199.308 63.494 199.535 62.4207 199.786 61.2817C200.413 61.3622 200.971 61.4326 201.52 61.5018L201.918 61.552L202.356 61.6075L202.822 61.1888L203.165 60.8808C203.603 60.4877 204.029 60.1055 204.444 59.7311C204.22 59.1705 204.033 58.7033 203.846 58.2411C204.186 57.8705 204.516 57.5103 204.842 57.1543L204.847 57.1489C205.219 56.7427 205.585 56.3421 205.957 55.9379C205.779 55.562 205.607 55.1997 205.437 54.8412C205.273 54.4941 205.11 54.1505 204.944 53.8014H202.474C202.388 53.5976 202.311 53.393 202.235 53.191C202.067 52.7422 201.904 52.3058 201.646 51.9175C201.36 51.4906 200.98 51.1108 200.634 50.7654C200.493 50.6246 200.358 50.4895 200.237 50.3593C199.259 50.2028 198.463 50.0765 197.586 49.9376L197.445 49.79C196.821 49.1358 196.175 48.4584 195.544 47.7986C195.923 47.094 196.251 46.4879 196.617 45.8136C196.512 45.5878 196.4 45.3473 196.273 45.075L196.249 45.0242L196.141 44.7908L196.076 44.6519C194.999 45.1043 194.021 45.5135 193.094 45.9012L192.941 45.9651L192.571 45.8792C192.345 45.827 192.125 45.7761 191.902 45.7244C191.655 45.6669 191.403 45.6084 191.135 45.5459C191.027 45.359 190.911 45.1719 190.795 44.9835C190.533 44.558 190.266 44.1253 190.063 43.672C189.646 42.7376 188.993 42.0204 188.047 41.4598C187.306 41.0186 186.588 40.5479 185.905 40.1008L185.904 40.0995L185.903 40.0989C185.606 39.9043 185.316 39.7142 185.033 39.5329C184.923 39.2559 184.829 39.0177 184.74 38.7945C184.664 38.6026 184.592 38.4219 184.518 38.2374C183.94 38.5611 183.414 38.854 182.84 39.1738L182.721 39.24C182.357 38.9602 182.001 38.6879 181.657 38.4249L181.64 38.4117L181.628 38.4024L181.276 38.1336C181.087 37.9889 180.902 37.8474 180.723 37.7096C179.822 37.8653 179.379 38.4136 178.957 38.9359C178.764 39.1758 178.574 39.4102 178.347 39.5986C177.952 39.5782 177.565 39.5509 177.184 39.524L177.181 39.5237C176.332 39.4637 175.513 39.4058 174.698 39.4319C173.507 39.4698 172.423 39.3157 171.411 38.7652C171.338 38.7247 171.242 38.7146 171.142 38.7041L171.099 38.6995C171.086 38.6981 171.073 38.6966 171.06 38.6949C171.037 38.692 171.014 38.6886 170.991 38.6844C170.689 38.8864 170.393 39.0859 170.223 39.2021H167.762C167.601 39.3482 167.442 39.4947 167.284 39.6406L167.278 39.6467C166.903 39.9928 166.534 40.3346 166.143 40.6567C165.479 41.2029 165.003 41.6251 164.634 41.9528C164.052 42.4686 163.735 42.7499 163.365 42.912C162.921 43.1065 162.4 43.129 161.256 43.1786C160.84 43.1966 160.342 43.2182 159.736 43.2528C159.644 43.2577 159.554 43.2563 159.453 43.2546C159.399 43.2537 159.341 43.2528 159.279 43.2528L159.128 43.0508L159.037 42.9286L158.913 42.7609L158.804 42.6144C158.76 42.5549 158.716 42.495 158.671 42.4344L158.627 42.3744ZM206.42 85.8906L206.076 86.221L205.235 87.0305H201.494C201.217 86.7711 200.901 86.4735 200.58 86.1708L200.493 86.0886C199.817 86.8563 199.458 88.1341 199.185 90.7429C199.793 91.225 200.429 91.7272 201.041 92.2108C201.397 92.4922 201.745 92.7673 202.075 93.0284C202.239 94.4906 202.267 95.6952 201.801 96.8367C201.767 96.8713 201.739 96.9052 201.714 96.9361C201.669 96.9907 201.633 97.0354 201.583 97.0564C199.78 97.8113 198.824 99.1944 197.868 100.577C197.538 101.054 197.208 101.53 196.844 101.981C196.644 102.231 196.46 102.489 196.255 102.776C196.152 102.922 196.043 103.075 195.924 103.239C195.804 103.224 195.682 103.212 195.559 103.2C195.279 103.173 194.992 103.145 194.716 103.082C194.375 103.004 194.037 102.911 193.699 102.819C193.169 102.673 192.639 102.527 192.096 102.441C191.265 102.309 190.379 102.206 189.554 102.312C188.01 102.509 186.549 102.547 185.065 101.989C183.951 101.571 182.793 101.242 181.636 100.913C181.336 100.827 181.036 100.742 180.737 100.655C180.337 100.539 179.903 100.476 179.48 100.456C177.882 100.382 176.282 100.319 174.632 100.254L174.627 100.254L174.609 100.253L173.679 100.217L173.33 100.203L172.763 100.18C172.625 99.9863 172.482 99.7857 172.341 99.5876C172.156 99.3268 171.973 99.0704 171.808 98.8393C171.946 98.6162 172.079 98.3998 172.209 98.1892L172.477 97.7535L172.485 97.7402C172.755 97.3024 173.01 96.8883 173.257 96.4882C173.178 96.1558 173.117 95.8223 173.057 95.4899C172.847 94.3402 172.64 93.205 171.679 92.1824C173.778 91.5257 175 90.2807 175.354 88.5054C176.082 88.4146 176.761 88.3293 177.449 88.2429L178.104 88.1606L178.393 88.1244L178.859 88.0659C178.931 87.1178 178.828 86.1894 178.723 85.242C178.63 84.3954 178.534 83.5333 178.56 82.6287C179.811 80.9064 181.171 79.0351 182.511 77.1915C182.02 76.9495 181.559 76.7211 181.054 76.4704C180.715 76.3026 180.356 76.1248 179.955 75.9263C180.805 75.7856 181.517 75.6676 182.225 75.5502L183.202 75.3884C183.222 75.0043 183.242 74.6299 183.263 74.2174L183.288 73.7315L183.299 73.5196C184.026 73.6119 184.747 73.7032 185.468 73.7945L186.857 73.9702C188.007 74.1155 189.166 74.2621 190.359 74.4136C190.466 73.8542 190.406 73.3013 190.347 72.748C190.283 72.1523 190.219 71.5562 190.362 70.9512C190.638 69.7921 191.029 68.6986 191.486 67.5773C192.075 67.4609 192.646 67.3469 193.214 67.2336L193.348 67.2069C193.573 67.1619 193.798 67.1171 194.023 67.0722L194.876 66.3913L195.781 65.6681L196.458 65.1277H202.319C203.52 67.0119 205.616 67.5016 207.598 67.9645C207.739 67.9974 207.879 68.0301 208.018 68.0632C208.073 68.0763 208.128 68.0894 208.183 68.1026C210.308 68.6152 212.623 68.8324 214.682 67.5293C215.369 67.8374 215.622 68.446 215.852 69.0243C216.071 69.5698 216.419 69.9512 216.948 70.2921C217.373 70.5676 217.732 70.9289 218.088 71.2866L218.092 71.2904C218.176 71.3741 218.259 71.4576 218.342 71.5397C218.559 71.7512 218.775 71.9641 218.99 72.177L218.991 72.1779C219.502 72.6836 220.014 73.1895 220.548 73.6762C220.987 74.0548 220.957 74.5096 220.922 75.0192C220.907 75.2401 220.891 75.4718 220.913 75.7116C221.305 75.7934 221.706 75.8774 222.143 75.9687L222.846 76.1157L223.215 75.4606L223.559 74.8484L223.812 74.3995L224.033 74.0087C224.098 73.892 224.163 73.7778 224.226 73.666C224.733 73.7209 225.231 73.775 225.735 73.8297C226.601 73.9237 227.482 74.0194 228.448 74.1232C229.066 74.6907 229.833 75.3919 230.603 76.0957L230.641 76.1299L230.647 76.1359C230.565 76.3785 230.484 76.6194 230.402 76.8595C230.273 77.2419 230.144 77.6222 230.015 78.0033L229.981 78.1045L229.965 78.1502L229.962 78.1592L229.945 78.2094C229.649 79.086 229.35 79.9703 229.034 80.8988C229.279 80.9668 229.516 81.0328 229.749 81.0976L230.372 81.2712L230.484 81.3026L230.572 81.327L230.621 81.3407L230.684 81.3583L231.344 81.5423C231.582 81.6088 231.824 81.676 232.071 81.7448C232.061 81.9069 232.053 82.0694 232.045 82.232C232.024 82.6472 232.003 83.0635 231.956 83.4773C231.913 83.8577 231.844 84.2355 231.773 84.6188L231.758 84.7025L231.74 84.8016C231.721 84.9026 231.703 85.0041 231.686 85.1062C230.954 85.5071 230.13 85.5234 229.29 85.54C228.495 85.5557 227.686 85.5717 226.929 85.9143V90.1646L226.59 90.5302L226.084 91.0763L225.558 91.6444C223.881 91.4323 222.202 91.2202 220.456 91.0004C220.726 90.4676 220.977 89.9751 221.25 89.4398C220.947 89.0226 220.646 88.6065 220.345 88.1909L219.94 87.6307C219.689 87.2823 219.437 86.9342 219.185 86.586C218.918 86.5569 218.659 86.519 218.404 86.482C217.867 86.4038 217.354 86.329 216.844 86.3461C213.727 86.4524 210.725 85.8814 207.761 85.3176C207.553 85.2782 207.346 85.2388 207.139 85.1996L206.42 85.8906ZM179.879 76.3955C179.568 76.2209 179.261 76.0485 178.954 75.8759L178.965 75.7707C178.973 75.699 178.981 75.6272 178.989 75.5577C180.17 75.338 181.352 75.1182 182.635 74.8809V73.0802H185.096C183.889 71.7822 182.526 71.017 180.648 70.9337C179.135 70.8655 177.594 70.6407 176.768 69.2467C176.721 69.1652 176.622 69.104 176.526 69.0447C176.51 69.0353 176.495 69.0259 176.48 69.0165C176.47 69.0099 176.459 69.0033 176.449 68.9967C175.245 68.199 174.036 67.4032 172.891 66.6492L172.234 66.2162C170.246 66.6133 169.08 67.7577 167.937 68.8793L167.936 68.8806L167.935 68.882C167.792 69.0221 167.65 69.1619 167.506 69.2997C167.573 69.7189 167.721 70.1164 167.868 70.5101C168.093 71.1149 168.315 71.7103 168.233 72.3605C166.537 72.8706 164.814 72.9085 163.201 72.7014C162.196 72.5709 161.233 72.1833 160.242 71.7847C159.797 71.6053 159.345 71.4234 158.882 71.2619C158.318 71.8313 157.738 72.419 157.188 72.9759L157.186 72.978L157.169 72.995C156.882 73.286 156.603 73.5685 156.34 73.8354C154.85 74.1519 153.374 74.1819 151.927 74.2114C150.534 74.2398 149.166 74.2676 147.836 74.55C147.586 75.0728 147.347 75.5713 147.112 76.0625C146.827 76.6557 146.548 77.2383 146.26 77.8406H134.404C134.315 78.1708 134.243 78.4998 134.172 78.8245C133.943 79.8703 133.723 80.8723 132.995 81.7298C132.049 81.8687 131.114 82.005 130.151 82.1439C130.061 82.3476 129.973 82.5473 129.886 82.745L129.66 83.258L129.432 83.7779L128.979 83.8258L128.437 83.8828C127.952 83.9338 127.473 83.984 126.998 84.0338L126.717 84.0633L126.691 84.0659L126.622 84.0732C125.871 84.1519 125.127 84.2298 124.385 84.3082C123.839 84.1718 123.292 84.0355 122.737 83.8966C121.627 85.134 121.049 86.5483 120.555 88.0332C120.718 88.3691 120.882 88.71 121.081 89.1242H124.454C124.558 89.3751 124.657 89.6139 124.757 89.8568C124.881 90.1567 125.007 90.4629 125.15 90.8061C127.269 90.7211 129.303 90.2421 131.331 89.7648C132.677 89.4479 134.02 89.1318 135.382 88.9322C135.842 89.085 136.296 89.2364 136.745 89.3863C137.143 89.5189 137.537 89.6504 137.929 89.7808C138.094 89.7233 138.254 89.6636 138.411 89.6047C138.753 89.4773 139.083 89.3537 139.428 89.2656C141.035 88.854 142.614 88.8287 144.072 89.6873C144.802 90.1179 145.522 90.5602 146.244 91.0039C146.576 91.2082 146.909 91.4129 147.244 91.6168C147.571 91.4548 147.874 91.3056 148.181 91.1549C148.405 91.0446 148.63 90.9335 148.869 90.8162L149.407 91.0262C150.294 91.3723 151.189 91.7219 152.069 92.0663C152.291 92.842 152.505 93.5878 152.716 94.3208L152.719 94.331L152.892 94.9333C152.999 95.3048 153.105 95.6742 153.211 96.0438H160.443C160.669 96.2197 160.908 96.4077 161.162 96.6074L161.199 96.6363C161.376 96.7756 161.561 96.9205 161.753 97.0709L161.918 97.2004C162.252 96.7686 162.537 96.3999 162.839 96.0059C163.252 95.9635 163.66 95.9203 164.066 95.8772L164.086 95.875C164.375 95.8444 164.664 95.8138 164.952 95.7837C165.017 95.3172 165.081 94.8597 165.145 94.403C165.254 93.6311 165.362 92.8613 165.476 92.0536C166.013 92.1079 166.498 92.1584 166.958 92.2063L166.96 92.2065L167.002 92.2109L167.08 92.219C167.325 92.2445 167.563 92.2693 167.799 92.2935C168.048 91.938 168.289 91.5931 168.534 91.2441C168.807 90.8544 169.084 90.4594 169.378 90.0384L169.938 90.4768L170.615 91.0063C170.917 91.2427 171.219 91.4781 171.532 91.7228C172.366 91.3011 173.145 90.9096 173.784 90.5864L173.987 90.1738C174.13 89.8819 174.267 89.6037 174.397 89.3379L174.425 89.2811L174.449 89.2327L174.45 89.2308C174.662 88.7993 174.858 88.401 175.04 88.0307C175.537 87.8325 176.042 87.8228 176.535 87.8133C177.161 87.8013 177.767 87.7896 178.316 87.3943C178.297 87.1976 178.283 86.9994 178.268 86.8005C178.238 86.3814 178.207 85.9583 178.137 85.5406C177.847 83.8435 177.809 82.25 179.198 80.7928C179.866 80.0913 180.403 79.2945 180.946 78.4899C181.188 78.1302 181.432 77.7689 181.689 77.4138L181.477 77.2943L181.225 77.1522C180.761 76.8908 180.316 76.6409 179.879 76.3955ZM151.31 121.689C148.88 121.298 146.585 120.927 144.219 120.543C143.786 119.518 143.355 118.495 142.92 117.462C142.621 116.75 142.319 116.034 142.013 115.308C142.144 115.229 142.273 115.152 142.4 115.075C142.534 114.994 142.666 114.913 142.797 114.834C143.362 114.489 143.9 114.162 144.457 113.861C145.176 113.472 145.51 112.926 145.579 112.206C145.625 111.738 145.693 111.272 145.759 110.814C145.791 110.593 145.823 110.373 145.852 110.156C144.51 109.564 143.206 108.989 141.902 108.413L140.28 107.697C139.538 107.37 138.791 107.041 138.033 106.706C138.355 105.504 138.668 104.333 138.989 103.131L138.996 103.103L139.178 102.423C138.539 102.031 137.933 101.66 137.319 101.283L137.18 101.197L136.345 100.686H130.729C130.729 100.52 130.717 100.358 130.706 100.202C130.682 99.8715 130.66 99.5632 130.752 99.2839C131.042 98.4076 130.809 97.6348 130.424 96.8418C129.676 95.2963 128.946 93.7457 128.221 92.1926C128.113 91.9611 128.033 91.719 127.946 91.4566C127.906 91.3353 127.865 91.2097 127.819 91.0788L135.218 89.4525C135.627 89.5799 136.028 89.7053 136.428 89.8304L136.81 89.9498L137.177 90.0646C137.447 90.149 137.719 90.2335 137.993 90.3187C138.373 90.1793 138.752 90.0404 139.132 89.9016L139.232 89.8649C139.616 89.7243 140 89.5836 140.385 89.4424C140.429 89.4456 140.473 89.4504 140.518 89.4553C140.613 89.4656 140.71 89.4761 140.805 89.4727C142.726 89.3906 144.157 90.292 145.589 91.1932L145.59 91.1941C145.743 91.29 145.895 91.3858 146.048 91.4804C146.27 91.6183 146.498 91.7511 146.741 91.8931L146.743 91.8944C146.882 91.9756 147.026 92.0598 147.178 92.1496C147.698 91.9097 148.239 91.6597 148.886 91.3617C149.792 91.7203 150.735 92.0941 151.583 92.4325C151.713 92.9031 151.838 93.3578 151.96 93.8011L151.966 93.8215C152.229 94.7789 152.478 95.6839 152.725 96.5842C154.161 96.8079 155.552 96.7092 156.945 96.6104C157.991 96.5362 159.038 96.4619 160.107 96.5236L160.366 96.7084L160.834 97.0419L161.075 97.2139C161.406 97.4501 161.759 97.702 162.14 97.9732L162.151 97.9573C162.31 97.7202 162.46 97.4966 162.611 97.2724C162.757 97.054 162.904 96.8349 163.06 96.6019L163.237 96.5685L163.289 96.5587L163.292 96.5582L163.36 96.5453C163.806 96.4612 164.269 96.3738 164.752 96.2821C165.017 96.2318 165.288 96.1802 165.565 96.1271C165.7 94.9427 165.832 93.7886 165.973 92.5688C166.358 92.6296 166.713 92.6864 167.063 92.7423L167.676 92.8404L168.064 92.9022C168.53 92.2128 168.99 91.5309 169.522 90.7404C171.673 92.4299 172.869 94.3771 172.426 97.0338C172.058 97.4959 171.618 98.0439 171.187 98.5869C171.292 98.8244 171.413 99.0585 171.533 99.2915C171.807 99.8234 172.079 100.35 172.153 100.898C172.225 101.424 172.092 101.971 171.96 102.517C171.902 102.759 171.843 103.001 171.802 103.241L173.052 104.279L174.028 105.09C174.618 106.188 174.523 107.044 174.183 107.951C173.413 108.093 172.628 108.236 171.73 108.401L171.678 108.704C171.569 109.333 171.46 109.962 171.351 110.58C171.671 110.84 171.963 111.077 172.273 111.328C172.474 111.491 172.683 111.66 172.912 111.845L172.713 112.012C172.571 112.131 172.429 112.251 172.286 112.371L172.158 112.478L172.146 112.487C171.796 112.782 171.434 113.085 171.029 113.424L171.145 114.195L171.148 114.214L171.15 114.233L171.157 114.279C171.242 114.84 171.33 115.429 171.422 116.039L171.489 116.484C170.264 116.76 169.073 116.537 167.909 116.202C166.937 115.921 166.013 115.818 164.97 116.03C164.426 116.141 163.842 116.091 163.197 116.035C162.894 116.009 162.576 115.981 162.243 115.969C162.304 115.936 162.151 115.979 162.065 116.068C161.156 116.979 160.13 117.649 158.666 117.74C158.274 117.764 157.883 117.991 157.512 118.207C157.429 118.256 157.347 118.303 157.266 118.348C155.923 119.094 154.583 119.848 153.229 120.61C152.593 120.968 151.954 121.328 151.31 121.689ZM153.344 121.14L153.308 121.16C152.83 121.426 152.345 121.696 151.851 121.972C151.924 122.049 151.992 122.123 152.058 122.194C152.135 122.278 152.208 122.358 152.277 122.435L152.279 122.437C152.537 122.72 152.753 122.959 152.998 123.169C153.345 123.47 153.684 123.78 154.023 124.09C154.907 124.899 155.793 125.709 156.811 126.354C158.188 127.225 159.649 127.991 161.11 128.757L161.111 128.758L161.112 128.758L161.113 128.759L161.114 128.759L161.115 128.76L161.116 128.76C161.872 129.157 162.629 129.554 163.374 129.965C164.509 130.594 165.706 130.877 167.052 130.738C167.7 130.671 168.351 130.632 169.003 130.592C169.543 130.559 170.082 130.526 170.62 130.478C170.942 130.447 171.262 130.321 171.561 130.197C172.578 129.78 173.591 129.356 174.651 128.911L175.347 128.619C175.545 128.537 175.744 128.453 175.946 128.369C177.413 129.404 179.129 129.48 180.944 129.296C181.711 129.219 182.49 129.237 183.345 129.256L183.348 129.256C183.756 129.266 184.181 129.275 184.631 129.275C184.779 129.134 184.932 128.988 185.092 128.836L185.423 128.52L185.429 128.515L185.442 128.502L185.464 128.481C185.803 128.158 186.166 127.813 186.552 127.445C187.403 127.937 188.258 128.433 189.114 128.928C190.24 129.581 191.368 130.234 192.493 130.884L193.282 130.763L193.285 130.763C193.877 130.672 194.453 130.584 195.018 130.498C196.119 131.175 197.174 131.821 198.253 132.483C198.848 131.554 199.437 130.636 200.022 129.722L201.058 128.107C201.619 127.232 202.179 126.358 202.742 125.48C203.464 125.298 204.178 125.117 204.903 124.933L205.085 124.887L205.182 124.863L205.23 124.851L206.393 124.556L207.021 124.398L207.725 124.22L207.471 123.4C207.333 122.955 207.203 122.535 207.073 122.113C207.004 122.154 206.934 122.192 206.865 122.232C205.827 121.437 204.786 120.641 203.725 119.83C203.44 119.748 203.149 119.664 202.859 119.58L202.267 119.409L201.846 119.287L201.433 119.168L201.154 119.088C200.749 117.62 201.073 116.271 201.408 114.879C201.569 114.206 201.733 113.523 201.819 112.812C199.88 111.163 197.853 109.438 195.912 107.789C195.8 106.647 195.696 105.594 195.589 104.521L195.524 103.857C195.421 103.828 195.317 103.797 195.214 103.767L195.061 103.722L194.802 103.645L194.8 103.645L194.797 103.644L194.794 103.643L194.79 103.642C192.915 103.086 191.062 102.536 189.088 102.862C187.601 103.11 186.253 102.956 184.892 102.491C184.664 102.413 184.432 102.342 184.2 102.271C184.026 102.217 183.851 102.163 183.679 102.107C181.568 101.42 179.46 100.743 177.139 100.973C176.989 100.989 176.833 100.956 176.676 100.924C176.549 100.897 176.42 100.871 176.294 100.87C175.473 100.861 174.654 100.862 173.797 100.864H173.796H173.794H173.793H173.792H173.79H173.789C173.46 100.864 173.125 100.865 172.783 100.865C172.656 101.622 172.536 102.355 172.4 103.163C173.2 103.832 174.028 104.524 174.945 105.289C174.945 105.434 174.946 105.584 174.947 105.738C174.95 106.097 174.952 106.477 174.942 106.857C174.934 107.235 174.913 107.612 174.892 107.982C174.884 108.133 174.875 108.283 174.868 108.431L174.373 108.518L173.709 108.635L173.658 108.644C173.124 108.737 172.619 108.826 172.116 108.916V110.82C172.344 110.971 172.629 111.157 172.968 111.38L173.49 111.722L173.712 111.868L172.718 112.553L172.603 112.632L172.107 112.974L171.638 113.297C171.807 114.469 171.949 115.455 172.099 116.492L172.173 117.002C170.928 117.204 169.783 117.207 168.607 116.921C168.468 116.887 168.328 116.851 168.186 116.815L168.182 116.814C167.396 116.613 166.581 116.404 165.827 116.492L165.746 116.501C164.625 116.632 163.551 116.757 162.56 116.446C162.215 116.647 161.92 116.893 161.631 117.133C161.086 117.587 160.567 118.02 159.79 118.083C158.689 118.174 157.809 118.638 156.923 119.139C155.757 119.796 154.587 120.448 153.372 121.124L153.353 121.135L153.344 121.14ZM199.867 110.609L199.748 110.502L199.682 110.443L199.535 110.311L199.403 110.192L199.303 110.103C198.375 109.269 197.45 108.438 196.516 107.598C196.404 106.348 196.292 105.057 196.185 103.868L196.28 103.733L196.389 103.58L196.552 103.349L196.712 103.122L197.077 102.605L197.079 102.602L197.082 102.598C197.961 101.351 198.81 100.148 199.682 98.9582C199.893 98.6693 200.24 98.4423 200.566 98.2292L200.614 98.198C201.033 97.9235 201.467 97.6664 201.939 97.3865C202.06 97.3146 202.184 97.2412 202.311 97.1656C202.366 97.1322 202.423 97.0984 202.48 97.0641C202.635 95.91 202.796 94.7104 202.972 93.3896C202.618 93.1078 202.26 92.8226 201.901 92.5364L201.843 92.4899C201.113 91.9091 200.38 91.3249 199.671 90.7582C199.984 89.3843 200.254 88.205 200.545 86.9322C200.701 87.1142 200.832 87.268 200.937 87.391C201.01 87.4762 201.07 87.5466 201.117 87.6014H205.195C205.911 87.0231 206.612 86.4574 207.377 85.8437C207.58 85.8784 207.784 85.9132 207.987 85.9481C211.513 86.5533 215.061 87.1623 218.745 86.8615L219.117 87.3803L219.53 87.9558L219.934 88.5195L219.97 88.5693C220.184 88.8679 220.396 89.1639 220.608 89.4601C220.298 90.0763 220.013 90.642 219.665 91.3365C220.919 91.6421 222.156 91.7841 223.417 91.9288C224.199 92.0184 224.989 92.1092 225.799 92.2406C226.073 91.9253 226.348 91.6099 226.614 91.305C226.797 91.0947 226.976 90.8894 227.148 90.6925C228.908 91.6673 229.966 92.9679 230.846 94.3645C231.444 95.314 232.33 95.8292 233.408 96.2484C234.551 96.6915 235.667 97.181 236.785 97.6708C237.209 97.8566 237.633 98.0424 238.058 98.2258C238.136 98.2593 238.203 98.3161 238.29 98.3904C238.335 98.4281 238.384 98.4703 238.443 98.5162C238.305 98.8148 238.167 99.1152 238.021 99.4316C237.872 99.7547 237.716 100.094 237.546 100.466H234.127C234.371 101.761 234.587 102.893 234.823 104.14C235.631 104.577 236.479 105.037 237.333 105.491C237.915 105.803 238.5 106.111 239.153 106.455L239.479 106.626C239.635 106.708 239.796 106.793 239.962 106.88C239.541 107.158 239.112 107.42 238.688 107.68C237.131 108.634 235.624 109.556 234.702 111.083C233.408 111.03 232.18 110.979 230.783 110.921C230.823 110.903 230.682 110.944 230.567 111.014C228.163 112.537 225.44 113.398 222.598 114.055C221.261 114.363 219.956 114.792 218.664 115.227C218.245 115.368 217.848 115.661 217.549 115.969C216.794 116.745 216.068 117.54 215.343 118.335C215.111 118.589 214.879 118.843 214.647 119.096C213.503 120.341 209.804 123.131 208.254 123.881C208.139 122.412 207.162 121.513 205.773 120.889C205.692 120.851 205.623 120.78 205.566 120.717C204.608 119.651 203.403 118.954 201.776 118.836C201.557 117.831 201.554 116.881 201.784 115.931C201.95 115.215 202.137 114.504 202.337 113.745L202.338 113.744L202.338 113.743C202.401 113.502 202.466 113.257 202.532 113.005L201.729 112.282L201.021 111.647L199.867 110.609ZM254.72 74.0802C254.188 74.1307 253.768 74.1686 253.288 74.2115C252.356 72.8781 251.516 71.5397 251.053 69.9638C251.741 69.585 252.114 69.0825 251.887 68.4966C251.851 68.4517 251.814 68.4075 251.778 68.3641C251.759 68.3416 251.74 68.3193 251.721 68.2972C251.694 68.2654 251.667 68.234 251.641 68.2028C251.565 68.1151 251.491 68.0299 251.417 67.9463C251.092 67.5743 250.794 67.2344 250.579 66.8576C250.211 66.2161 249.676 65.7893 248.971 65.4837C248.516 65.2872 248.06 65.0923 247.605 64.8977L247.581 64.8875C247.237 64.7404 246.893 64.5933 246.55 64.4458L246.465 63.9009C246.41 63.5497 246.356 63.2049 246.303 62.8653C246.214 62.2986 246.127 61.7463 246.041 61.2032C245.57 61.0231 245.134 60.8557 244.718 60.6964L244.705 60.6914L244.209 60.5011C244.24 60.2535 244.265 60.0636 244.293 59.8539L244.294 59.8492L244.296 59.8298L244.31 59.7276L244.327 59.597C242.974 59.2627 241.727 59.5064 240.484 59.7496L240.482 59.7499C240.12 59.8208 239.757 59.8916 239.392 59.948C239.303 60.5336 239.216 61.1013 239.13 61.6673C239.042 62.2486 238.954 62.828 238.863 63.423C238.576 63.5445 238.29 63.6657 238 63.7883C237.508 63.997 237.007 64.2098 236.476 64.4357V66.4156C235.806 66.855 235.197 67.254 234.633 67.6228C234.605 67.9221 234.578 68.2052 234.548 68.5039L234.547 68.523L234.546 68.5325C234.524 68.7516 234.502 68.9797 234.478 69.2289C233.764 69.0879 233.183 68.9745 232.556 68.8521L232.312 68.8046C231.711 69.1395 231.097 69.4823 230.496 69.8176L230.463 69.8361C229.992 70.0987 229.53 70.3567 229.089 70.6027L228.889 70.5843L228.855 70.5811C228.6 70.5574 228.369 70.536 228.143 70.515C227.961 70.498 227.782 70.4813 227.596 70.4638C227.789 70.9702 227.971 71.4496 228.147 71.9136C228.249 72.1831 228.349 72.4475 228.449 72.7088C228.574 73.0387 228.697 73.3639 228.821 73.6888L228.58 73.8933C229.044 74.231 229.509 74.5687 229.972 74.9048L229.992 74.9196L230.009 74.9314L230.567 75.3369C230.821 75.5216 231.075 75.7055 231.326 75.8884L231.036 76.774L230.764 77.6033L230.6 78.1015C230.325 78.9388 230.057 79.7571 229.788 80.5806L230.248 80.707L230.422 80.7549L231.05 80.9273L231.529 81.059L232.047 81.201C232.26 81.2597 232.476 81.3187 232.695 81.3787C232.723 82.7102 232.51 83.9642 232.298 85.212C232.268 85.3889 232.238 85.5657 232.209 85.7426C231.48 85.8685 230.762 85.9267 230.069 85.9829C229.151 86.0575 228.277 86.1284 227.481 86.3487V90.2226C227.537 90.2668 227.589 90.31 227.639 90.352C227.692 90.3963 227.742 90.4393 227.79 90.4808C227.976 90.6402 228.135 90.777 228.318 90.8792C229.322 91.4374 230.023 92.2253 230.573 93.1243C231.441 94.5461 232.632 95.5891 234.44 96.1068C235.182 96.3185 235.878 96.6506 236.573 96.9825L236.579 96.9851C236.852 97.1158 237.126 97.2464 237.402 97.3695C237.818 97.5556 238.226 97.752 238.671 97.9661C238.848 98.0514 239.031 98.1394 239.223 98.2307C238.937 98.834 238.671 99.3928 238.409 99.9431C238.239 100.3 238.071 100.654 237.9 101.014H234.852L234.974 101.667L235.069 102.173C235.182 102.776 235.29 103.356 235.398 103.938C235.82 104.155 236.239 104.372 236.655 104.588C237.786 105.174 238.901 105.751 240.028 106.307C240.928 106.751 241.909 106.878 242.886 106.686C243.49 105.964 244.084 105.255 244.678 104.547C245.173 103.957 245.667 103.367 246.168 102.769C248.607 102.314 251.044 101.861 253.503 101.404L256.716 100.807C257.055 99.7712 257.38 98.7737 257.685 97.8342C257.542 97.6239 257.409 97.4203 257.28 97.2231C257 96.7927 256.738 96.3925 256.437 96.0185C255.962 95.4275 255.83 94.8012 255.93 94.1092C256.005 93.5816 256.079 93.0532 256.155 92.4987C256.217 92.0526 256.281 91.5896 256.35 91.0964L256.939 90.8253L257.174 90.7166L257.403 90.6114L257.413 90.6066C259.045 89.8545 260.717 89.0837 262.45 88.2856C262.778 87.3866 263.14 86.3916 263.545 85.2754C264.262 85.1729 264.99 85.0684 265.75 84.9593L266.543 84.8455L267.103 84.7652C266.964 84.4185 266.83 84.0846 266.7 83.761L266.696 83.7518L266.693 83.744C266.471 83.1903 266.261 82.667 266.059 82.1615L265.104 82.0611L262.648 81.8029C262.591 81.6032 262.536 81.4106 262.481 81.2202C262.369 80.8278 262.259 80.445 262.139 80.0301H259.128C258.77 79.6157 258.42 79.2099 258.076 78.8116C257.673 78.3459 257.28 77.8906 256.894 77.4441H255.269C255.198 77.0076 255.128 76.58 255.059 76.158L255.044 76.0689L255.041 76.0455C254.932 75.3812 254.825 74.7302 254.72 74.0802ZM247.034 63.5453L246.987 63.2077L246.93 62.7892L246.929 62.7829L246.928 62.7777C246.842 62.1586 246.753 61.5108 246.656 60.827C246.356 60.7164 246.042 60.6013 245.719 60.4831C245.444 60.3826 245.163 60.2798 244.879 60.1754L244.895 60.1011C244.941 59.8781 244.986 59.6618 245.037 59.4026C244.955 59.3621 244.873 59.3218 244.79 59.2813L244.572 59.1744L244.56 59.1687L244.554 59.1656L244.321 59.0517C244.216 59.0005 244.109 58.9477 243.996 58.8925C244.043 58.8102 244.089 58.7277 244.136 58.6446C244.19 58.5483 244.245 58.4514 244.3 58.3536L244.459 58.0702L244.539 57.9268L244.554 57.9006L244.578 57.8581L244.597 57.8248C244.791 57.478 244.994 57.1159 245.213 56.7282L244.643 56.6081L243.752 56.4201C243.602 55.8898 243.433 55.2887 243.211 54.4958C243.119 54.4242 242.997 54.3286 242.846 54.2101C242.661 54.0652 242.432 53.8862 242.162 53.675C242.479 53.2036 242.798 52.7288 243.122 52.2471L243.145 52.213C243.392 51.8471 243.641 51.4772 243.893 51.1017C244.166 50.6956 244.444 50.2829 244.727 49.8616L244.37 49.5184C244.07 49.2294 243.736 48.9072 243.349 48.5358L243.377 48.3911L243.378 48.3825C243.433 48.0935 243.496 47.76 243.556 47.4246C243.991 47.2781 244.336 47.1645 244.776 47.018V44.1744L244.951 44.0937L245.234 43.9638L245.531 43.8277L245.536 43.8254C245.846 43.6828 246.159 43.5394 246.513 43.3764L246.484 43.0404C246.427 42.382 246.369 41.713 246.306 40.9924H248.074L248.297 41.3871C248.433 41.6271 248.579 41.8854 248.75 42.1869L249.034 42.2281C249.695 42.3238 250.38 42.423 251.083 42.5245C251.46 42.5789 251.842 42.6339 252.229 42.6895C252.45 42.5773 252.674 42.4634 252.903 42.3465L253.129 42.2316L253.276 42.1567L253.407 42.09L253.608 41.9878L253.733 41.9243C253.965 42.0976 254.205 42.2624 254.445 42.4269C255.294 43.0103 256.14 43.5906 256.586 44.5381L256.869 44.6375L256.926 44.6574C257.142 44.7334 257.355 44.8082 257.557 44.8788L257.672 44.9191C257.764 44.9515 257.854 44.9829 257.941 45.0128C259.174 44.4017 260.333 43.8284 261.501 43.2501C262.326 43.8208 263.108 44.3613 263.942 44.9371H268.144C268.324 45.1296 268.51 45.3191 268.696 45.5089C269.129 45.949 269.563 46.3906 269.926 46.8741C270.361 47.4524 270.919 47.7504 271.649 47.8842C271.682 47.8903 271.714 47.8961 271.747 47.9018C271.787 47.9088 271.827 47.9156 271.867 47.9224L271.871 47.923C272.128 47.9666 272.385 48.0102 272.621 48.0964C273.303 48.3464 273.915 48.253 274.533 47.9347C274.914 47.7376 275.31 47.5611 275.67 47.4007L275.672 47.3997L275.674 47.3988L275.683 47.3951L275.775 47.354L275.861 47.3155C275.906 47.2953 275.951 47.2753 275.994 47.2556L276.042 47.234L276.078 47.2175C276.923 47.2832 277.262 47.6923 277.536 48.2252C278.074 49.2798 278.628 50.3272 279.204 51.4143L279.206 51.4183L279.232 51.4686C279.484 51.9442 279.74 52.4275 280 52.9224C279.655 53.2566 279.297 53.5893 278.936 53.9249C278.112 54.6899 277.273 55.4697 276.532 56.3141C275.876 57.0613 275.008 57.5436 274.119 58.0374C273.529 58.3647 272.931 58.697 272.379 59.1147C272.702 59.4589 273.016 59.7938 273.323 60.1207L273.343 60.1423L273.36 60.16L273.398 60.2007C273.724 60.5485 274.042 60.8872 274.352 61.2184C275.995 61.1555 277.548 61.0975 279.236 61.0347L279.252 61.034C279.173 61.4392 279.097 61.8249 279.021 62.2143C278.984 62.4025 278.948 62.5916 278.91 62.7842C277.317 63.1907 275.81 63.5746 274.174 63.9913C274.126 64.2922 274.078 64.5977 274.028 64.9108L273.945 65.4377L273.93 65.533L273.849 66.0403C273.806 66.3108 273.762 66.5886 273.717 66.8753C274.579 67.1455 275.373 67.393 276.374 67.7062C276.531 67.9807 276.695 68.2679 276.864 68.5639C277.236 69.2127 277.631 69.9041 278.024 70.5978L278.065 70.669C279.279 72.8179 279.294 72.8451 278.89 75.1284C278.745 75.9425 278.58 76.7537 278.414 77.5647L278.414 77.566C278.201 78.6088 277.988 79.6513 277.82 80.6994C277.648 81.7727 277.139 82.6995 276.552 83.7072C276.086 83.7653 275.616 83.8256 275.142 83.8863C274.176 84.0102 273.196 84.1357 272.216 84.2476C271.26 84.3549 270.304 84.4493 269.328 84.5455L269.324 84.546L269.321 84.5462L269.315 84.5469L269.31 84.5473C269.08 84.57 268.848 84.5928 268.616 84.616C268.332 84.6441 268.046 84.6728 267.758 84.7022C267.321 83.6718 266.89 82.6591 266.401 81.5126H263.094C263.061 81.2835 263.031 81.0686 263.002 80.8591C262.943 80.4382 262.887 80.0393 262.824 79.5908C261.659 79.5377 260.529 79.4872 259.263 79.4317L258.646 78.6804L258.59 78.6114C258.135 78.0582 257.659 77.4781 257.147 76.8557L257.01 76.8641L256.837 76.875C256.716 76.8827 256.58 76.8914 256.432 76.9011C256.247 76.9133 256.041 76.9269 255.818 76.9416C255.755 76.5166 255.693 76.0962 255.63 75.6737L255.512 74.8825C255.451 74.4679 255.388 74.0476 255.324 73.6156C254.996 73.5045 254.611 73.3757 254.265 73.2595C254.187 73.3384 254.118 73.4073 254.049 73.4763L253.958 73.5672C253.897 73.629 253.831 73.6943 253.756 73.7697C253.09 73.0844 252.714 72.3232 252.342 71.5716C252.123 71.1267 251.904 70.6851 251.628 70.2644L251.762 70.1534L251.898 70.0408L252.07 69.8978L252.078 69.8909L252.087 69.8834C252.24 69.7556 252.385 69.6355 252.534 69.5118V68.3653C252.522 68.348 252.509 68.3298 252.497 68.311L252.478 68.2819L252.475 68.2769L252.473 68.2748C252.427 68.2045 252.378 68.1292 252.313 68.0648C252.271 68.0231 252.228 67.9822 252.184 67.9417C252.148 67.9079 252.11 67.8743 252.073 67.841C252.048 67.8188 252.023 67.7968 251.998 67.7748L251.939 67.7226C251.692 67.5056 251.445 67.2892 251.269 67.0344C251.163 66.8827 251.068 66.7254 250.973 66.5686C250.645 66.029 250.321 65.4947 249.604 65.2111C249.061 64.9997 248.537 64.7557 247.947 64.4808C247.806 64.4151 247.661 64.3474 247.511 64.2783C247.382 64.2184 247.248 64.1573 247.111 64.0948C247.085 63.9139 247.06 63.7308 247.034 63.5453ZM200.15 62.7228C199.973 63.4031 199.806 64.0456 200.341 64.6908C201.131 64.6908 201.928 64.6908 202.624 64.6807C202.782 64.8527 202.921 65.0348 203.055 65.2106C203.335 65.5767 203.594 65.916 203.955 66.0798C205.264 66.6758 206.641 67.2112 208.059 67.5496C209.721 67.946 211.461 67.946 213.264 67.7693L213.583 67.5779L213.603 67.5657C213.957 67.3531 214.334 67.127 214.696 66.9081C215.807 67.5066 216.242 68.459 216.655 69.3633C216.684 69.4283 216.714 69.493 216.743 69.5573C217.793 70.1962 218.656 70.9033 219.306 71.8124C219.556 72.1609 219.913 72.469 220.272 72.7393C221.184 73.4236 221.833 74.1964 221.526 75.3733H222.636L223.045 74.6167C223.344 74.0643 223.642 73.5135 223.953 72.9388C224.044 72.9614 224.134 72.9842 224.225 73.007C225.447 73.315 226.645 73.6169 227.898 73.3277C227.941 72.1811 227.358 71.2442 226.627 70.3275L226.813 70.2205C226.962 70.1352 227.099 70.0563 227.229 69.9822C227.411 69.878 227.576 69.7833 227.732 69.6936C227.833 69.7263 227.93 69.7578 228.024 69.7882C228.22 69.8516 228.4 69.9104 228.569 69.9653L228.616 69.9806L228.945 70.0876C229.636 69.7129 230.301 69.3533 230.967 68.9939L231.022 68.964C231.423 68.7472 231.825 68.5301 232.232 68.3097C232.49 68.3419 232.752 68.3747 233.022 68.4086L233.054 68.4126L233.076 68.4153C233.36 68.4511 233.655 68.488 233.966 68.5269V67.4763C234.63 67.0142 235.223 66.6025 235.85 66.1682V64.0998L236.162 63.9656L236.188 63.9544L236.546 63.8003L237.001 63.6047C237.44 63.4156 237.873 63.229 238.305 63.0417C238.351 62.7184 238.396 62.3991 238.44 62.0818L238.525 61.4737C238.612 60.8531 238.698 60.2363 238.786 59.6097C239.876 59.167 241.044 59.0797 242.233 58.9908C242.583 58.9646 242.936 58.9382 243.289 58.9025L243.707 58.2327L243.905 57.9152C244.049 57.6834 244.196 57.4481 244.347 57.2055C244.173 57.1622 244.011 57.1224 243.844 57.0815L243.773 57.0639C243.563 57.0125 243.342 56.9582 243.076 56.8923C243.076 55.7003 242.688 54.6043 241.463 53.7709C242.204 52.6453 242.917 51.5619 243.677 50.4062L244.071 49.806C243.926 49.7086 243.773 49.6068 243.617 49.503C243.396 49.3554 243.168 49.2037 242.943 49.0543L242.596 48.8237L242.765 48.1731L242.775 48.1318C242.876 47.7439 242.96 47.4187 243.039 47.119C243.283 46.9979 243.494 46.8937 243.69 46.7966L244.106 46.5912V44.187C243.006 42.632 241.331 41.9616 239.697 41.3076C239.097 41.0674 238.502 40.8293 237.943 40.5504C237.743 40.2187 237.553 39.8885 237.365 39.5623C236.933 38.8106 236.512 38.0795 236.005 37.3962C235.486 36.6967 234.884 36.0459 234.273 35.3863L234.272 35.3851C234.004 35.0949 233.734 34.8031 233.468 34.5046C233.036 34.7138 232.65 34.9005 232.283 35.0784L231.591 35.4137C230.865 35.7672 230.141 36.1214 229.416 36.4756L229.408 36.4795L229.402 36.4825L229.397 36.4848C227.119 37.5978 224.842 38.7107 222.55 39.8004C222.115 40.0049 221.537 40.159 221.069 40.0958C219.989 39.9487 218.919 39.7428 217.867 39.54C217.456 39.461 217.048 39.3824 216.643 39.3079C216.143 38.7337 215.659 38.1792 215.171 37.6189C214.819 37.2157 214.465 36.8096 214.101 36.3911C213.453 36.7606 212.73 36.997 212.01 37.2327C210.752 37.6445 209.499 38.0544 208.66 39.169C206.454 39.1185 204.634 40.01 202.825 41.101C202.607 41.6861 202.38 42.2919 202.154 42.8948L201.997 43.3133L201.799 43.8436C200.919 43.9645 200.074 44.0803 199.234 44.1952L199.229 44.1959L198.16 44.3422C197.711 44.4036 197.262 44.4653 196.806 44.5279C196.87 44.738 196.93 44.9371 196.987 45.1278C197.065 45.3866 197.138 45.6298 197.209 45.8639C196.972 46.3426 196.746 46.7972 196.53 47.2334L196.393 47.5091L196.246 47.8059L196.541 48.1124C196.949 48.5356 197.341 48.9427 197.81 49.4323C198.555 49.5409 199.441 49.6697 200.387 49.8086C201.422 50.743 202.48 51.7077 202.736 52.9451C202.898 52.986 203.044 53.0272 203.179 53.0654C203.461 53.1451 203.697 53.2116 203.938 53.2355C204.258 53.2653 204.583 53.2587 204.922 53.2518C205.073 53.2488 205.227 53.2457 205.385 53.2457L205.698 53.9652C206.011 54.6823 206.3 55.3457 206.584 55.9933C206.175 56.4502 205.789 56.8828 205.416 57.299C205.11 57.642 204.813 57.9738 204.522 58.299C204.663 58.7285 204.79 59.112 204.895 59.4295L205.011 59.7814C204.111 60.6577 203.314 61.433 202.543 62.1831C202.232 62.148 201.94 62.1154 201.661 62.0841C201.195 62.032 200.761 61.9835 200.318 61.933C200.285 62.2032 200.217 62.4657 200.15 62.7228ZM52.4983 39.4541L52.5006 39.4532C54.1215 38.7416 55.7197 38.04 57.3211 37.3384C58.4024 37.7778 59.4318 38.197 60.6368 38.6895C60.7266 38.2324 60.8103 37.8033 60.8935 37.3763L60.8947 37.3701L60.8956 37.3654C60.99 36.8808 61.084 36.3987 61.186 35.8812C61.3145 35.7991 61.4504 35.712 61.5927 35.6209L61.6361 35.593L61.6539 35.5817C62.0474 35.3297 62.4874 35.0479 62.9517 34.7523C62.9893 34.1384 63.0295 33.5178 63.0698 32.8948L63.0782 32.7648C63.6304 32.5754 64.1509 32.3987 64.7548 32.1941C64.651 31.9288 64.5543 31.68 64.4609 31.4396L64.4526 31.4181L64.3852 31.2448C64.352 31.1593 64.319 31.0747 64.2863 30.9906C64.2334 30.8548 64.1808 30.7203 64.1279 30.5854L64.044 30.5562L64.0302 30.5513C63.4513 30.3494 62.9032 30.1582 62.2443 29.9263V27.2519C61.9208 27.0204 61.6254 26.8095 61.3333 26.6009C61.0645 26.409 60.7985 26.2191 60.516 26.017C60.508 25.9459 60.4978 25.8696 60.4871 25.7895C60.4632 25.6105 60.4368 25.4127 60.4268 25.2139C60.3665 24.0017 59.8287 22.9461 59.1098 21.9308C58.5507 21.1401 58.0166 20.3359 57.468 19.5098L57.4672 19.5086L57.4596 19.4972L57.4523 19.4861C57.2159 19.1302 56.9767 18.7701 56.7316 18.4054C57.6345 17.5492 58.5289 16.6982 59.4865 15.7865C58.7244 14.9228 58.0343 14.1399 57.2722 13.2737L57.3964 12.9603L57.5717 12.5173L57.7223 12.1364L57.7243 12.1314L57.7553 12.0531L57.8909 11.7102L58.0486 11.3115C58.2146 11.3506 58.377 11.3883 58.5367 11.4254C58.9333 11.5175 59.3135 11.6057 59.6907 11.7029C60.3259 11.8675 60.9611 12.0319 61.5962 12.1963L61.7046 12.2243C64.2395 12.8804 66.7736 13.5362 69.3041 14.2031C70.8446 14.6083 72.4295 14.7525 74.0144 14.8966C74.8496 14.9726 75.6848 15.0486 76.5134 15.1627C77.1761 15.2529 77.8426 15.3225 78.5482 15.3961L78.8622 15.4289C78.9853 15.4418 79.1096 15.455 79.2355 15.4685C79.3572 15.4816 79.4802 15.4949 79.6048 15.5087V18.2867C80.8976 18.559 82.188 18.6086 83.4521 18.6572C84.6145 18.7018 85.7552 18.7456 86.8544 18.9609C87.5503 21.0065 87.5474 21.0924 86.7308 23.787C86.2109 23.7044 85.683 23.6196 85.1267 23.5301L85.06 23.5193C84.7011 23.8742 84.8654 24.2209 85.0302 24.5686C85.1691 24.8619 85.3084 25.1559 85.1348 25.4563C84.9777 25.6325 84.8198 25.8086 84.6633 25.9832L84.6567 25.9906L84.4649 26.2046L84.3634 26.318L84.2692 26.4235C84.2608 26.563 84.2528 26.7004 84.2448 26.8368L84.2275 27.1345L84.2266 27.1492C84.2132 27.3791 84.1999 27.6092 84.1858 27.8454C84.0949 27.8925 84.0077 27.9397 83.9224 27.9859L83.9208 27.9868L83.9198 27.9873L83.917 27.9888L83.9158 27.9895C83.7523 28.0779 83.5954 28.1627 83.4324 28.2368C82.8141 28.5146 82.5495 28.9515 82.538 29.5626C82.5322 29.9552 82.4839 30.3467 82.4346 30.7464C82.4113 30.9353 82.3877 31.1267 82.3683 31.3203C81.9879 31.4854 81.6286 31.641 81.2714 31.7957L81.2535 31.8034L80.8857 31.9626C80.6606 32.0601 80.4337 32.1584 80.2001 32.2598C80.232 32.3534 80.2594 32.443 80.2858 32.5291C80.3377 32.6987 80.3855 32.8549 80.456 33.0022C80.9564 34.068 81.1088 35.169 81.1145 36.3232L81.1146 36.3338C81.1232 37.6988 81.1316 39.0229 79.9384 40.0406C79.9982 40.1509 80.0538 40.2535 80.1071 40.352L80.2045 40.5318C80.294 40.6969 80.3808 40.8566 80.4761 41.0305C79.9687 41.0939 79.4695 41.1507 78.9769 41.2067C77.8196 41.3384 76.6986 41.466 75.5932 41.6644C74.604 41.8412 73.7729 42.3462 73.2869 43.1923C72.9635 43.7548 72.6313 44.3135 72.3124 44.8498L72.311 44.852C72.1852 45.0636 72.0614 45.2718 71.9411 45.4752C71.8739 45.4983 71.8189 45.5214 71.7722 45.541C71.691 45.5751 71.6346 45.5987 71.5816 45.5939C70.2847 45.4727 69.468 46.0005 68.7577 46.9375C68.6862 47.0318 68.6152 47.1271 68.5439 47.2227L68.543 47.2239C67.8861 48.1047 67.21 49.0111 66.0172 49.5007L65.9851 49.5708L65.9188 49.7157C65.8679 49.8273 65.816 49.9413 65.7616 50.0607L65.7451 50.0971C65.6719 50.258 65.5941 50.429 65.5082 50.617C65.1188 50.4063 64.7376 50.1996 64.3454 49.9869L64.3192 49.9727C63.8825 49.7358 63.4316 49.4913 62.9402 49.2255C62.5425 49.5418 62.1249 49.8747 61.6805 50.229C61.4083 50.4459 61.1261 50.6708 60.8323 50.9049C60.6092 50.8509 60.3718 50.7932 60.1153 50.7307C59.7833 50.6499 59.4191 50.5612 59.012 50.4629L57.442 51.0035C56.0246 51.4915 54.5528 51.9982 53.0277 52.5237C52.7588 52.2162 52.4798 51.9142 52.201 51.6124C51.2454 50.578 50.2923 49.5463 49.758 48.3088C49.3871 47.4526 49.3641 46.3642 49.5884 45.455C49.8497 44.3871 49.6589 43.3993 49.4651 42.3957L49.4649 42.3946C49.4305 42.2167 49.3961 42.0383 49.3641 41.8588C49.3323 41.6702 49.3151 41.4816 49.2952 41.2626C49.2844 41.1444 49.2728 41.0173 49.2577 40.8765C50.2755 40.43 51.2784 39.9897 52.2724 39.5533L52.4983 39.4541ZM62.3592 34.5298V32.3781C62.9775 32.1862 63.4635 32.0347 63.9869 31.868C63.9544 31.7758 63.9222 31.6836 63.8904 31.5922C63.8574 31.4973 63.8249 31.4032 63.7929 31.3108L63.7924 31.3095L63.7446 31.1713C63.7204 31.1016 63.6967 31.0332 63.6734 30.9664C63.5285 30.9197 63.3875 30.8741 63.2483 30.829C63.0361 30.7603 62.8282 30.6928 62.6172 30.6243L62.5864 30.6143L62.5588 30.6053L62.5439 30.6005C62.2959 30.52 62.0427 30.4377 61.7726 30.3502C61.7174 29.8391 61.6614 29.3293 61.6058 28.8224C61.5804 28.5905 61.5551 28.3593 61.5299 28.1289C61.5082 27.9304 61.4866 27.7325 61.4652 27.5353L61.4361 27.2667C60.8725 26.8778 60.352 26.5192 59.7222 26.0823C60.187 24.478 59.309 23.2064 58.4247 21.9259C58.3625 21.8358 58.3002 21.7456 58.2384 21.6553C57.7301 20.9142 57.2506 20.1564 56.7573 19.3766L56.7566 19.3756C56.5357 19.0263 56.3119 18.6726 56.0816 18.3141C57.0076 17.4606 57.922 16.6171 58.8193 15.7887C58.2563 15.1617 57.7171 14.5634 57.1997 13.9891L57.1292 13.9109L57.0393 13.8111L56.605 13.329C56.7385 12.9943 56.8613 12.6857 56.9833 12.3787C57.1137 12.051 57.2432 11.7252 57.3843 11.3718C55.6905 11.8163 54.1118 12.2305 52.6768 12.6067L52.1166 12.2017C51.5701 11.8066 51.1004 11.467 50.6667 11.1546C49.7833 11.2427 48.9042 11.3238 48.031 11.4044C44.7715 11.7053 41.5924 11.9989 38.5715 12.6143C38.3615 12.9128 38.1754 13.207 37.9961 13.4902C37.6158 14.0911 37.2665 14.6431 36.7857 15.0842C35.8531 15.937 34.8251 16.7116 33.7974 17.4858L33.7932 17.489C33.4406 17.7546 33.0882 18.0202 32.7396 18.2889C32.6286 18.3748 32.4844 18.4272 32.3077 18.4914C32.2145 18.5253 32.1118 18.5625 32.0006 18.6096C31.1109 17.4415 29.8197 17.3677 28.4729 17.2906C28.0872 17.2686 27.697 17.2463 27.3103 17.1979C27.2359 17.5493 27.1611 17.8929 27.0875 18.231L27.0872 18.2322C26.8906 19.1351 26.7025 19.9985 26.554 20.8674C26.4937 21.2234 26.5512 21.6426 26.718 21.9684L26.7184 21.9694C27.7708 24.0374 28.8231 26.1054 29.9617 28.138C30.4982 29.0951 31.0946 30.0264 31.6912 30.9578C32.0092 31.4543 32.3272 31.9509 32.6361 32.4514C32.7857 32.6922 32.9136 32.9432 33.0504 33.2117C33.1187 33.3459 33.1893 33.4844 33.2659 33.6282C32.5096 34.2141 31.8079 34.7571 31.066 35.3303C31.1265 35.3879 31.1867 35.4453 31.2467 35.5025L31.2759 35.5304L31.2866 35.5406C32.3823 36.5864 33.4044 37.5619 34.8763 38.078C35.4174 38.2683 35.9523 38.4731 36.4871 38.6779C37.3079 38.9923 38.1285 39.3065 38.9713 39.568C39.8052 39.8281 40.3746 40.2397 40.7312 40.9241C40.7945 41.0461 40.8546 41.1694 40.9146 41.2926C41.0235 41.5161 41.1324 41.7396 41.2603 41.9545C41.4166 42.2181 41.5905 42.474 41.761 42.7249L41.7626 42.7272C41.83 42.8265 41.8969 42.9249 41.962 43.0227C42.2499 43.0748 42.5239 43.1255 42.8286 43.1819L43.1698 43.245L43.3229 43.7378L43.3379 43.7862L43.3563 43.8453L43.5117 44.3458L43.627 44.7173C44.0363 44.5003 44.4389 44.2869 44.8354 44.0768C45.634 43.6535 46.4079 43.2434 47.1612 42.8434C47.5997 43.105 47.8358 43.4736 48.0673 43.8352C48.3231 44.2348 48.5733 44.6256 49.0851 44.8536C49.2626 44.0375 49.086 43.269 48.9072 42.4908C48.7646 41.87 48.6205 41.243 48.6537 40.5807L48.7449 40.5406C51.5991 39.2861 54.4643 38.0267 57.3268 36.7673C58.3361 37.184 59.2822 37.5754 60.2456 37.9744C60.3251 37.443 60.4016 36.9361 60.4724 36.4666L60.4728 36.4638L60.4748 36.4506C60.5208 36.1451 60.5645 35.8556 60.6051 35.5854C61.0197 35.3356 61.3694 35.1252 61.7042 34.9239L62.148 34.657L62.3592 34.5298ZM61.8369 94.4808L61.8333 94.4813C61.5491 94.5236 61.2582 94.5668 60.9646 94.5966C58.4765 94.852 55.9884 95.1028 53.499 95.3538C52.7631 95.4279 52.027 95.5021 51.2908 95.5765C51.2586 95.5799 51.2262 95.5837 51.1939 95.5874L51.1843 95.5885C51.0292 95.6065 50.8729 95.6246 50.7185 95.6144C48.9442 95.5083 47.6789 96.3694 46.4597 97.3266C46.3031 97.4493 46.1284 97.5562 45.8988 97.6966C45.7742 97.7729 45.6333 97.859 45.4704 97.963C45.4985 97.6457 45.5249 97.3454 45.5506 97.0539C45.6091 96.3897 45.6635 95.772 45.7235 95.1067C45.5948 95.0038 45.458 94.8947 45.3137 94.7796L45.2741 94.748L45.2666 94.742L45.2539 94.7319C45.0147 94.5411 44.7559 94.3347 44.4812 94.1143C44.4524 93.7001 44.4208 93.248 44.3834 92.7303C45.3742 91.9316 46.3136 91.0834 47.2561 90.2325C49.0819 88.584 50.9191 86.9252 53.1629 85.5961H55.6187C55.9264 84.8006 56.214 84.0606 56.5591 83.1742C56.2255 82.9823 55.9063 82.8004 55.6532 82.6565V80.6059C56.5223 80.5158 57.3536 80.4291 58.2175 80.339L58.8309 80.275L58.941 80.9544L58.9422 80.9618L58.997 81.3L59.0523 81.6413C59.9049 82.0401 60.6593 81.7715 61.4422 81.4927L61.4434 81.4923C61.6714 81.4111 61.9019 81.3291 62.1379 81.2625C62.2392 81.4884 62.3308 81.6942 62.4246 81.9046L62.4275 81.9111L62.4355 81.9291L62.5715 82.2341L62.6383 82.3838L63.119 82.6054C63.6088 82.8313 64.1148 83.0646 64.6225 83.2979L64.9276 83.2064C65.2392 83.113 65.5474 83.021 65.8538 82.9295L65.8976 82.9164L65.936 82.905L65.9495 82.901C66.3724 82.7746 66.7923 82.6493 67.2135 82.5227C68.6485 83.5783 70.1122 84.4723 71.9843 84.8814C72.0726 84.7686 72.1687 84.6607 72.2637 84.5539C72.4688 84.3236 72.6689 84.0988 72.7751 83.8434C73.3128 82.5555 74.4286 81.8357 75.9153 81.2701C76.6486 81.6716 77.4509 82.111 78.2331 82.5403C80.8097 82.6262 81.5402 82.5151 83.8551 81.6665C83.9213 82.1014 83.9875 82.5322 84.054 82.9651L84.0561 82.9787C84.0954 83.2344 84.1348 83.4908 84.1744 83.7491C84.2068 83.9608 84.2394 84.1739 84.2721 84.3889C82.9008 84.5354 81.5891 84.6745 80.2703 84.8144C79.5425 84.8916 78.8126 84.969 78.0692 85.048C77.7965 85.3036 77.5075 85.5735 77.1921 85.868C76.962 86.0828 76.7179 86.3107 76.4559 86.5557C76.1067 86.5937 75.7487 86.6308 75.3846 86.6685L75.3662 86.6704C74.3807 86.7724 73.3506 86.8791 72.3265 87.0204C71.7743 87.0962 71.2107 87.2578 70.7161 87.4851C69.1086 88.2275 67.5097 88.9953 65.9482 89.8085C65.4766 90.0534 65.0395 90.4322 64.7346 90.8338C64.151 91.6113 63.603 92.4056 63.0188 93.2525C62.7567 93.6325 62.4873 94.0231 62.204 94.4274C62.0831 94.4442 61.9607 94.4624 61.8369 94.4808ZM136.244 123.914C136.279 123.682 136.316 123.437 136.359 123.177C139.074 122.902 141.426 122.066 143.56 120.573C142.83 118.78 142.096 116.979 141.343 115.123C142.588 114.376 143.724 113.694 144.811 113.042C144.952 112.133 145.078 111.312 145.208 110.459C144.142 109.93 143.049 109.466 141.957 109.003C140.402 108.344 138.849 107.685 137.383 106.84C137.685 105.696 137.977 104.593 138.273 103.481L138.277 103.466L138.502 102.617C137.725 102.138 136.986 101.681 136.319 101.266C135.972 101.266 135.636 101.269 135.308 101.271H135.306H135.305C134.573 101.276 133.88 101.281 133.187 101.259C132.877 101.249 132.565 101.262 132.248 101.276C131.516 101.307 130.765 101.339 129.981 101.085C129.989 100.995 129.994 100.906 129.999 100.818C130.003 100.762 130.006 100.706 130.008 100.65L130.011 100.596C130.029 100.25 130.046 99.9104 130.116 99.5794C130.315 98.6475 130.335 97.7661 129.832 96.8797C129.528 96.3412 129.277 95.7801 129.025 95.2189C128.891 94.9197 128.757 94.6199 128.615 94.324C128.288 93.6426 127.955 92.9623 127.617 92.2701C127.441 91.9105 127.264 91.5477 127.085 91.1799L126.787 91.1954L126.592 91.2056L125.96 91.2388C125.578 91.2589 125.191 91.2794 124.77 91.3011C124.543 90.7884 124.307 90.2581 124.028 89.6318C123.562 89.7194 123.076 89.6885 122.59 89.6576C121.675 89.5993 120.758 89.5409 119.962 90.2732C120.057 90.7733 120.143 91.2228 120.23 91.6647C120.219 91.6807 120.21 91.6968 120.2 91.7131C120.192 91.7267 120.184 91.7405 120.176 91.7543C120.146 91.8078 120.117 91.8623 120.088 91.9168L120.087 91.9181C119.912 92.2518 119.737 92.5834 119.186 92.6496C118.838 92.3214 118.493 91.9905 118.133 91.6471C117.401 91.8002 116.679 91.9511 115.98 92.0968C115.282 92.2425 114.608 92.383 113.972 92.5156L113.847 92.5415L113.825 92.5461C112.552 91.738 111.439 91.0334 110.452 90.4096L110.07 90.5794L109.556 90.8078L108.92 91.0908L108.402 91.3213C108.438 91.4366 108.477 91.5611 108.518 91.6918C108.59 91.9245 108.669 92.1769 108.75 92.4325L108.383 92.6809C108.072 92.8913 107.77 93.0951 107.43 93.3265C107.718 93.3451 107.972 93.3623 108.211 93.3785L108.222 93.3793L108.39 93.3906C108.54 93.4008 108.685 93.4105 108.83 93.4199C109.04 93.5744 109.248 93.728 109.451 93.8781C109.631 94.0105 109.806 94.1401 109.975 94.2651L110.001 94.2846L110.422 94.5956C110.576 94.7098 110.722 94.8177 110.858 94.9175C112.086 98.0591 111.571 101.049 110.958 103.976L112.604 105.545L113.65 106.542H116.031C116.149 106.803 116.275 107.06 116.401 107.314C116.956 108.435 117.49 109.513 117.101 110.797C116.935 111.345 116.839 111.909 116.741 112.484C116.695 112.754 116.649 113.027 116.595 113.302C116.85 113.707 117.106 114.113 117.362 114.517C117.632 114.946 117.901 115.373 118.168 115.795C119.061 115.907 119.918 116.016 120.738 116.12C121.3 116.192 121.846 116.261 122.375 116.328C122.562 116.618 122.735 116.893 122.902 117.158C123.243 117.698 123.554 118.192 123.89 118.671C124.299 119.252 124.368 119.813 124.12 120.47C123.877 121.114 123.685 121.772 123.492 122.438L123.491 122.44C123.41 122.717 123.329 122.996 123.243 123.275C123.401 123.466 123.558 123.657 123.716 123.848C123.947 124.128 124.179 124.408 124.41 124.688C124.717 125.06 125.024 125.432 125.331 125.803C123.41 127.013 120.523 127.561 118.36 127.157C118.304 127.018 118.248 126.879 118.192 126.739C118.101 126.514 118.009 126.285 117.916 126.053L117.8 125.763H113.253C112.735 125.038 112.236 124.339 111.737 123.641L111.663 123.538L111.206 123.75C110.834 123.923 110.468 124.093 110.103 124.263L109.407 124.586C108.895 124.823 108.381 125.062 107.856 125.306C108.165 126.343 108.464 127.338 108.752 128.296L108.758 128.318L109.055 129.306C107.971 132.432 106.645 135.392 104.971 138.241C104.14 139.653 103.168 140.893 101.667 141.802C99.3952 143.176 97.7791 144.989 97.02 147.375C97.5861 148.046 98.1614 148.725 98.7302 149.396C98.9387 149.642 99.1462 149.887 99.3521 150.131C99.4745 150.153 99.5964 150.175 99.7178 150.196C99.9659 150.241 100.212 150.284 100.456 150.327L100.514 150.337C101.432 150.498 102.325 150.655 103.208 150.843C104.189 151.05 105.057 150.936 105.975 150.545C107.972 149.689 109.987 148.867 112.001 148.044L112.003 148.044L112.006 148.043C112.94 147.661 113.874 147.28 114.806 146.895C115.295 146.693 115.772 146.537 116.319 146.731C116.91 146.943 117.506 147.144 118.103 147.346C118.269 147.402 118.436 147.459 118.602 147.515C118.73 147.558 118.857 147.602 118.984 147.645C119.439 148.837 119.873 149.976 120.307 151.113C120.799 151.004 121.161 150.923 121.564 150.833L121.609 149.819L121.642 149.078C121.678 148.266 121.714 147.457 121.751 146.635L120.975 146.184C120.644 145.991 120.309 145.796 119.965 145.596C119.559 145.36 119.142 145.117 118.706 144.862C119.2 144.394 119.675 143.93 120.142 143.475L120.144 143.473C121.172 142.469 122.16 141.504 123.232 140.615C124.906 139.228 126.651 137.906 128.396 136.584C128.936 136.176 129.476 135.767 130.013 135.357C130.962 134.632 131.755 133.839 132.293 132.809C132.765 131.901 133.281 131.012 133.797 130.122L133.798 130.121C134.281 129.288 134.764 128.455 135.212 127.606C135.561 126.944 135.752 126.209 135.939 125.488L135.98 125.333C136.099 124.886 136.167 124.429 136.244 123.914ZM194.693 164.005C194.093 164.213 193.517 164.413 192.978 164.601C192.574 164.742 192.19 164.876 191.831 165C190.733 164.919 189.784 164.848 188.703 164.768C188.011 163.318 186.545 162.549 185.103 161.792L185.019 161.748C184.842 161.655 184.665 161.561 184.49 161.467C184.344 160.897 184.695 160.581 185.029 160.28C185.124 160.195 185.218 160.111 185.298 160.022C185.569 159.723 185.875 159.45 186.181 159.177C186.702 158.712 187.223 158.247 187.573 157.651C187.738 157.368 187.932 157.099 188.138 156.811C188.23 156.683 188.325 156.551 188.421 156.414C188.061 155.959 187.711 155.517 187.319 155.025C187.158 153.358 187.121 151.656 188.036 149.918L187.711 149.856C186.862 149.691 186.135 149.551 185.355 149.398C185.206 148.959 185.056 148.524 184.904 148.085C183.092 147.474 181.689 148.244 180.294 149.259C179.838 148.936 179.348 148.654 178.861 148.373L178.861 148.372C177.574 147.63 176.305 146.898 175.705 145.451C174.497 145.277 173.283 145.102 172.041 144.926C171.15 145.309 170.252 145.696 169.315 146.1C168.728 146.006 168.127 145.91 167.469 145.804V144.38C167.76 144.222 168.047 144.059 168.334 143.896C168.971 143.534 169.607 143.172 170.281 142.875C171.564 142.307 172.524 141.443 173.393 140.491C173.89 139.945 174.459 139.544 175.178 139.269L175.477 139.154C176.781 138.655 178.084 138.155 179.374 137.632C179.919 137.411 180.444 137.142 180.966 136.875L180.967 136.874L181.134 136.789C182.881 135.895 184.626 134.995 186.436 134.062L187.285 133.624C187.069 133.255 186.856 132.889 186.643 132.522C186.427 132.151 186.211 131.779 185.993 131.405C185.646 130.81 185.296 130.207 184.933 129.584C185.176 129.349 185.421 129.112 185.672 128.868C185.962 128.587 186.261 128.298 186.575 127.995C187.25 128.396 187.916 128.792 188.584 129.189C189.781 129.899 190.984 130.613 192.251 131.367C192.578 131.336 192.927 131.302 193.304 131.266L193.306 131.266C193.851 131.214 194.451 131.157 195.115 131.094C195.71 131.475 196.316 131.86 196.93 132.251L196.936 132.255C198.425 133.201 199.958 134.176 201.465 135.18C201.661 135.311 201.856 135.443 202.051 135.575C203.334 136.443 204.615 137.311 206.193 137.753C207.835 138.216 208.85 139.165 209.218 140.665L208.843 141.077L208.824 141.098C208.415 141.548 207.977 142.029 207.472 142.587C209.382 143.227 211.232 143.848 213.079 144.468L213.188 144.504L213.33 144.552C214.424 144.919 215.519 145.287 216.626 145.658C217.445 145.253 218.27 144.849 219.099 144.443C221.164 143.431 223.248 142.41 225.304 141.347C226.512 140.723 227.694 140.17 229.126 140.044C229.961 139.969 230.788 139.829 231.616 139.689L231.619 139.689C232.104 139.607 232.59 139.525 233.077 139.456C233.317 139.422 233.566 139.429 233.872 139.438C234.032 139.443 234.208 139.448 234.406 139.448L234.253 139.739C232.776 142.537 231.352 145.234 229.028 147.59C228.715 147.641 228.395 147.701 228.069 147.762C227.274 147.91 226.446 148.064 225.609 148.118C224.839 148.167 224.039 148.019 223.266 147.877C223.202 147.866 223.139 147.854 223.076 147.842C222.426 147.724 221.773 147.542 221.178 147.287C219.34 146.496 217.885 147.07 216.496 148.15C215.441 148.972 214.621 149.957 213.8 150.943L213.797 150.946C213.547 151.246 213.297 151.547 213.04 151.843C212.171 152.843 211.044 153.411 209.632 153.454C208.689 153.482 207.849 153.676 207.052 154.105C204.809 155.313 202.563 156.515 200.3 157.694C199.728 157.992 199.346 158.361 199.185 158.934C199.146 159.075 199.069 159.208 198.993 159.34C198.916 159.473 198.84 159.606 198.802 159.747C198.584 160.586 198.017 161.139 197.172 161.555C196.645 161.816 196.142 162.164 195.742 162.56C195.466 162.835 195.253 163.161 195.026 163.509C194.921 163.67 194.812 163.837 194.693 164.005Z" fill="#0047FF"/>
</svg>
