<svg width="79" height="19" viewBox="0 0 79 19" fill="none" xmlns="http://www.w3.org/2000/svg">
<path d="M14.691 14.2014V18H0.737931V0.620688H14.3683V4.41931H5.60414V7.34896H13.3255V11.0234H5.60414V14.2014H14.691Z" fill="#FFB800"/>
<path d="M33.2838 8.93793H37.6286V16.1379C36.6355 16.8497 35.4935 17.3959 34.2024 17.7766C32.9114 18.1572 31.6203 18.3476 30.3293 18.3476C28.5086 18.3476 26.87 17.9669 25.4135 17.2055C23.9569 16.4276 22.8148 15.3517 21.9872 13.9779C21.1597 12.6041 20.7459 11.0483 20.7459 9.31034C20.7459 7.57241 21.1597 6.01655 21.9872 4.64276C22.8148 3.26896 23.9652 2.20138 25.4383 1.44C26.9114 0.662067 28.5748 0.273102 30.4286 0.273102C32.0507 0.273102 33.5072 0.546205 34.7983 1.09241C36.0893 1.63862 37.1652 2.42483 38.0259 3.45103L34.8976 6.28138C33.7224 4.99034 32.3155 4.34483 30.6769 4.34483C29.1872 4.34483 27.9872 4.8 27.0769 5.71034C26.1666 6.60414 25.7114 7.80414 25.7114 9.31034C25.7114 10.2703 25.9183 11.131 26.3321 11.8924C26.7459 12.6372 27.3252 13.2248 28.07 13.6552C28.8148 14.069 29.6672 14.2759 30.6272 14.2759C31.5707 14.2759 32.4562 14.0855 33.2838 13.7048V8.93793ZM49.5094 18.3476C47.6722 18.3476 46.017 17.9586 44.5439 17.1807C43.0873 16.4028 41.937 15.3269 41.0928 13.9531C40.2653 12.5793 39.8515 11.0317 39.8515 9.31034C39.8515 7.58896 40.2653 6.04138 41.0928 4.66759C41.937 3.29379 43.0873 2.21793 44.5439 1.44C46.017 0.662067 47.6722 0.273102 49.5094 0.273102C51.3466 0.273102 52.9935 0.662067 54.4501 1.44C55.9232 2.21793 57.0735 3.29379 57.9011 4.66759C58.7453 6.04138 59.1673 7.58896 59.1673 9.31034C59.1673 11.0317 58.7453 12.5793 57.9011 13.9531C57.0735 15.3269 55.9232 16.4028 54.4501 17.1807C52.9935 17.9586 51.3466 18.3476 49.5094 18.3476ZM49.5094 14.2759C50.3866 14.2759 51.1811 14.069 51.8929 13.6552C52.6046 13.2414 53.1673 12.6621 53.5811 11.9172C53.9949 11.1559 54.2018 10.2869 54.2018 9.31034C54.2018 8.33379 53.9949 7.4731 53.5811 6.72827C53.1673 5.9669 52.6046 5.37931 51.8929 4.96552C51.1811 4.55172 50.3866 4.34483 49.5094 4.34483C48.6322 4.34483 47.8377 4.55172 47.126 4.96552C46.4142 5.37931 45.8515 5.9669 45.4377 6.72827C45.0239 7.4731 44.817 8.33379 44.817 9.31034C44.817 10.2869 45.0239 11.1559 45.4377 11.9172C45.8515 12.6621 46.4142 13.2414 47.126 13.6552C47.8377 14.069 48.6322 14.2759 49.5094 14.2759ZM78.7635 0.620688L71.3152 18H66.4738L59.0504 0.620688H64.3635L69.0807 11.9421L73.8973 0.620688H78.7635Z" fill="#0047FF"/>
</svg>
