<svg width="80" height="80" viewBox="0 0 80 80" fill="none" xmlns="http://www.w3.org/2000/svg">
<g clip-path="url(#clip0)">
<path d="M40 31C46.6276 31 52 25.6276 52 19C52 12.3724 46.6276 7 40 7C33.3724 7 28 12.3724 28 19C28.0072 25.6243 33.3757 30.9928 40 31ZM40 9.66667C45.1549 9.66667 49.3333 13.8451 49.3333 19C49.3333 24.1549 45.1549 28.3333 40 28.3333C34.8451 28.3333 30.6667 24.1549 30.6667 19C30.6725 13.8477 34.8477 9.67253 40 9.66667Z" fill="white"/>
<path d="M12.0007 26.9998C15.6823 26.9998 18.6673 24.0148 18.6673 20.3332C18.6673 16.6515 15.6823 13.6665 12.0007 13.6665C8.31901 13.6665 5.33398 16.6515 5.33398 20.3332C5.33854 24.0135 8.32031 26.9953 12.0007 26.9998ZM12.0007 16.3332C14.2096 16.3332 16.0007 18.1242 16.0007 20.3332C16.0007 22.5422 14.2096 24.3332 12.0007 24.3332C9.79167 24.3332 8.00065 22.5422 8.00065 20.3332C8.00065 18.1242 9.79167 16.3332 12.0007 16.3332Z" fill="white"/>
<path d="M68.0007 26.9998C71.6823 26.9998 74.6673 24.0148 74.6673 20.3332C74.6673 16.6515 71.6823 13.6665 68.0007 13.6665C64.319 13.6665 61.334 16.6515 61.334 20.3332C61.3385 24.0135 64.3203 26.9953 68.0007 26.9998ZM68.0007 16.3332C70.2096 16.3332 72.0007 18.1242 72.0007 20.3332C72.0007 22.5422 70.2096 24.3332 68.0007 24.3332C65.7917 24.3332 64.0007 22.5422 64.0007 20.3332C64.0007 18.1242 65.7917 16.3332 68.0007 16.3332Z" fill="white"/>
<path d="M73.3333 27C73.0449 27 72.7643 27.0938 72.5332 27.2669L68 30.6667L63.4668 27.2669C63.2356 27.0938 62.9551 27 62.6666 27C60.472 26.9974 58.4199 28.0859 57.1907 29.9043C55.1679 28.8796 52.9342 28.3418 50.6666 28.3333C50.3131 28.3333 49.9739 28.474 49.7239 28.724L40 38.4479L30.276 28.724C30.026 28.474 29.6868 28.3333 29.3333 28.3333C27.0657 28.3418 24.832 28.8796 22.8092 29.9043C21.5801 28.0859 19.528 26.9974 17.3333 27C17.0449 27 16.7643 27.0938 16.5332 27.2669L12 30.6667L7.46679 27.2669C7.23567 27.0938 6.95508 27 6.66666 27C2.98633 27.0046 0.0045573 29.9863 0 33.6667V45.5202C0.000651041 46.9004 0.710937 48.1836 1.88021 48.9173L10.0384 54.0189C10.6751 54.4049 11.4049 54.6087 12.1491 54.6081C12.7669 54.6094 13.3763 54.4674 13.929 54.1934L14.6667 53.8242V59.9336C14.666 61.5163 15.5983 62.9505 17.0456 63.5918L37.2962 72.5905C39.0163 73.3574 40.9811 73.3574 42.7012 72.5905L62.9531 63.5905C64.4004 62.9499 65.3333 61.5156 65.3333 59.9336V52.487L66.2161 52.9251C67.3392 53.485 68.6595 53.485 69.7825 52.9251L77.7825 48.9251C79.1438 48.2526 80.0039 46.8646 80 45.3464V33.6667C79.9954 29.9863 77.0136 27.0046 73.3333 27ZM12.7376 51.8001C12.3236 52.0026 11.8346 51.9811 11.4401 51.7428L3.30664 46.6563C2.91601 46.4089 2.67513 45.9824 2.66667 45.5202V33.6667C2.66667 31.6185 4.21354 29.901 6.25065 29.6882L11.1999 33.3997C11.6738 33.7559 12.3262 33.7559 12.8001 33.3997L17.7493 29.6882C18.8594 29.8014 19.8698 30.377 20.5332 31.2734C20.444 31.3398 20.3665 31.4186 20.2786 31.487C20.0723 31.6491 19.8789 31.8203 19.6784 31.9922C19.4225 32.2148 19.1732 32.4414 18.9349 32.6797C18.7506 32.8639 18.5762 33.0521 18.401 33.2454C18.1771 33.4941 17.9622 33.7507 17.7559 34.015C17.599 34.2175 17.4453 34.4147 17.2988 34.6309C17.1055 34.9069 16.9277 35.1908 16.7546 35.4785C16.6211 35.6947 16.4961 35.9108 16.3776 36.1335C16.2174 36.4362 16.0749 36.7467 15.9362 37.0664C15.8372 37.2904 15.7331 37.5117 15.6452 37.7428C15.5117 38.0775 15.4134 38.4199 15.3092 38.7656C15.2428 38.9883 15.1667 39.2051 15.1107 39.4323C15.015 39.8184 14.9479 40.2148 14.8841 40.6107C14.8522 40.8053 14.8053 40.9961 14.7812 41.1921C14.7064 41.7917 14.668 42.3958 14.6667 43V50.8424L12.7376 51.8001ZM62.6666 59.9336C62.6666 60.4635 62.3522 60.9427 61.8665 61.1549L41.6159 70.1562C40.5866 70.6159 39.4108 70.6159 38.3815 70.1562L18.1335 61.1549C17.6478 60.9427 17.3333 60.4635 17.3333 59.9336V43C17.3327 41.9746 17.4622 40.9531 17.7187 39.9603C19.0638 34.8783 23.5495 31.2565 28.8001 31.0117L39.0664 41.2786C39.5872 41.7995 40.4316 41.7995 40.9518 41.2786L51.2187 31.0117C57.6204 31.3171 62.6569 36.5911 62.6666 43V59.9336ZM77.3333 45.3464C77.3346 45.8561 77.0462 46.3216 76.5892 46.5469L68.5892 50.5469C68.2181 50.7318 67.7806 50.7318 67.4095 50.5469L65.3333 49.5065V43C65.332 42.3932 65.2936 41.7871 65.2187 41.1855C65.1946 40.9883 65.1478 40.7975 65.1159 40.6029C65.0508 40.2025 64.9824 39.8119 64.8893 39.4264C64.8333 39.1986 64.7558 38.9798 64.6894 38.7598C64.5866 38.4173 64.4824 38.0762 64.3561 37.7428C64.2669 37.5104 64.1614 37.2865 64.0612 37.0599C63.9277 36.7494 63.7838 36.4414 63.6237 36.14C63.5052 35.9147 63.373 35.696 63.2428 35.4733C63.0722 35.1882 62.8945 34.9082 62.7096 34.6361C62.5599 34.4225 62.4043 34.2148 62.2441 34.0091C62.041 33.7428 61.8307 33.4987 61.6093 33.252C61.4336 33.056 61.2532 32.8626 61.0664 32.6758C60.832 32.4401 60.5853 32.2175 60.3333 31.9974C60.1347 31.8242 59.9336 31.6504 59.7252 31.487C59.6386 31.4186 59.5612 31.3398 59.472 31.2734C60.1354 30.377 61.1452 29.8014 62.2545 29.6882L67.1998 33.3997C67.6738 33.7559 68.3261 33.7559 68.8001 33.3997L73.7493 29.6882C75.7864 29.901 77.3333 31.6185 77.3333 33.6667V45.3464Z" fill="white"/>
</g>
<defs>
<clipPath id="clip0">
<rect width="80" height="80" fill="white"/>
</clipPath>
</defs>
</svg>
