<svg width="81" height="80" viewBox="0 0 81 80" fill="none" xmlns="http://www.w3.org/2000/svg">
<path d="M65.1309 29.887L63.342 30.7814L65.1309 31.6758L77.9781 38.0991C77.9782 38.0992 77.9782 38.0992 77.9782 38.0992C79.5411 38.8809 79.5396 41.1201 77.9783 41.9005L77.9782 41.9006L65.1309 48.3246L63.342 49.219L65.1309 50.1134L77.9781 56.5367C77.9782 56.5367 77.9782 56.5368 77.9782 56.5368C79.5409 57.3184 79.5399 59.557 77.9782 60.3381C77.9782 60.3382 77.9781 60.3382 77.9781 60.3382L41.1033 78.7756C40.5034 79.0754 39.7994 79.0742 39.2018 78.7756L2.32699 60.3382C2.32695 60.3382 2.32692 60.3382 2.32689 60.3381C0.764255 59.5565 0.765221 57.3179 2.32687 56.5368C2.32691 56.5368 2.32695 56.5367 2.32699 56.5367L15.1742 50.1134L16.9631 49.219L15.1743 48.3246L2.32699 41.9006C0.764253 41.119 0.765191 38.8803 2.32687 38.0992C2.32691 38.0992 2.32695 38.0992 2.32699 38.0991L15.1742 31.6758L16.9631 30.7814L15.1743 29.887L2.32691 23.463L2.3268 23.4629C0.764507 22.682 0.764994 20.4428 2.32689 19.6616C2.32692 19.6616 2.32695 19.6616 2.32699 19.6616L39.2016 1.22427C39.8004 0.925245 40.5047 0.925245 41.1035 1.22427L77.9781 19.6616C79.5411 20.4432 79.5397 22.6825 77.9783 23.4629L77.9782 23.463L65.1309 29.887ZM40.5998 5.72426L40.1526 5.50064L39.7053 5.72426L9.81811 20.6682L8.02927 21.5626L9.81813 22.457L39.7053 37.4003L40.1526 37.6239L40.5998 37.4003L70.487 22.457L72.2758 21.5626L70.487 20.6682L40.5998 5.72426ZM70.487 59.3322L72.2758 58.4378L70.487 57.5433L59.0374 51.8182L58.5901 51.5946L58.1429 51.8182L41.1033 60.338C41.1032 60.3381 41.1031 60.3381 41.1031 60.3381C40.5033 60.6377 39.7999 60.6366 39.2016 60.3379L22.1622 51.8182L21.715 51.5946L21.2677 51.8182L9.8181 57.5433L8.0293 58.4378L9.81813 59.3322L39.7053 74.2755L40.1526 74.4991L40.5998 74.2755L70.487 59.3322ZM39.7053 55.8379L40.1526 56.0615L40.5998 55.8379L70.487 40.8946L72.2758 40.0002L70.487 39.1058L59.0374 33.3806L58.5901 33.157L58.1429 33.3806L41.1033 41.9004C41.1032 41.9005 41.1031 41.9005 41.1031 41.9006C40.5033 42.2001 39.7999 42.1991 39.2016 41.9003L22.1622 33.3806L21.715 33.157L21.2677 33.3806L9.8181 39.1058L8.0293 40.0002L9.81813 40.8946L39.7053 55.8379Z" stroke="white" stroke-width="2"/>
</svg>
